<svg width="48" height="48" viewBox="0 0 48 48" fill="none" xmlns="http://www.w3.org/2000/svg">
<path fill-rule="evenodd" clip-rule="evenodd" d="M0 2.99551C0 1.34113 1.33389 0 3.00261 0H44.9974C46.6557 0 48 1.34247 48 2.99551V36.0045C48 37.6589 46.6409 39 45.0089 39H27L9 48V39H3C1.34315 39 0 37.6575 0 36.0045V2.99551Z" fill="#D6D8DA"/>
<path d="M24 7C22.3764 7 21.0916 8.3734 21.1996 9.99336L21.867 20.0044C21.9418 21.1274 22.8745 22 24 22C25.1255 22 26.0582 21.1274 26.133 20.0044L26.8004 9.99336C26.9084 8.3734 25.6236 7 24 7Z" fill="#5D6165"/>
<path d="M21 28C21 26.3431 22.3431 25 24 25C25.6569 25 27 26.3431 27 28C27 29.6569 25.6569 31 24 31C22.3431 31 21 29.6569 21 28Z" fill="#5D6165"/>
</svg>
