<?xml version="1.0" encoding="UTF-8"?>
<svg width="48px" height="48px" viewBox="0 0 48 48" version="1.1" xmlns="http://www.w3.org/2000/svg" xmlns:xlink="http://www.w3.org/1999/xlink">
    <!-- Generator: Sketch 50.2 (55047) - http://www.bohemiancoding.com/sketch -->
    <title>icon-contacts</title>
    <desc>Created with Sketch.</desc>
    <defs></defs>
    <g id="icon-contacts" stroke="none" stroke-width="1" fill="none" fill-rule="evenodd">
        <g id="contacts-02" transform="translate(0.000000, 6.000000)">
            <path d="M48,34.0002927 C48,35.1047006 47.0980496,36 45.9914698,36 L36,36 L36,31.498576 C36,30.6709353 35.3360095,30 34.5015652,30 L32.9984348,30 C32.1708721,30 31.5,30.6650298 31.5,31.498576 L31.5,36 L16.5,36 L16.5,31.498576 C16.5,30.6709353 15.8360095,30 15.0015652,30 L13.4984348,30 C12.6708721,30 12,30.6650298 12,31.498576 L12,36 L2.0085302,36 C0.899249601,36 -3.06019073e-13,35.1101074 -3.07126717e-13,34.0002927 L-3.39064717e-13,1.99970728 C-3.40166965e-13,0.895299444 0.894938439,2.94329233e-14 2.00138927,2.94091709e-14 L45.9986107,2.84646737e-14 C47.1039475,2.84409452e-14 48,0.889892578 48,1.99970728 L48,34.0002927 Z" id="Fill-647" fill="#d6d8da"></path>
            <path d="M25.5,7.5 L34.5,7.5 L34.5,9 L25.5,9 L25.5,7.5 Z M25.5,12 L42,12 L42,13.5 L25.5,13.5 L25.5,12 Z M25.5,16.5 L42,16.5 L42,18 L25.5,18 L25.5,16.5 Z M25.5,21 L42,21 L42,22.5 L25.5,22.5 L25.5,21 Z M13.5,16.125 C11.0147186,16.125 9,13.8584415 9,11.0625 C9,8.26655845 11.0147186,6 13.5,6 C15.9852814,6 18,8.26655845 18,11.0625 C18,13.8584415 15.9852814,16.125 13.5,16.125 Z M4.5,21.75 C4.49999999,20.625 6.75,17.25 9,17.25 C11.25,17.25 10.125,18.375 13.5,18.375 C16.875,18.375 15.75,17.25 18,17.25 C20.25,17.25 22.5,20.625 22.5,21.75 C22.5,22.875 22.5,24 21.375,24 L5.625,24 C4.5,24 4.50000001,22.875 4.5,21.75 Z" id="Combined-Shape" fill="#5d6165"></path>
        </g>
    </g>
</svg>
