<?xml version="1.0" encoding="UTF-8"?>
<svg width="48px" height="48px" viewBox="0 0 48 48" version="1.1" xmlns="http://www.w3.org/2000/svg" xmlns:xlink="http://www.w3.org/1999/xlink">
    <!-- Generator: Sketch 50.2 (55047) - http://www.bohemiancoding.com/sketch -->
    <title>icon-contacts-groups</title>
    <desc>Created with Sketch.</desc>
    <defs></defs>
    <g id="icon-contacts-groups" stroke="none" stroke-width="1" fill="none" fill-rule="evenodd">
        <g id="contacts-01" transform="translate(5.000000, 0.000000)">
            <path d="M37.9995806,9 C38.552097,9 39,9.43798828 39,10.0032421 L39,46.9967579 C39,47.5508332 38.5620117,48 37.9967579,48 L3.99040483,48 C1.7865651,48 0,46.2059475 0,43.9901068 L0,4.00989318 C0,1.79529033 1.78347516,0 3.99538978,0 L36.4969656,0 C37.0509262,0 37.5,0.442660332 37.5,0.998956561 L37.5,2.00104344 C37.5,2.55275191 37.0511745,3 36.5046887,3 L5.00398732,3 C3.89721568,3 3,3.89826062 3,4.99791312 L3,7.00208688 C3,8.10550383 3.88989258,9 4.99970728,9 L37.9995806,9 Z M4.5,6 C4.5,5.17157288 5.17249525,4.5 5.99811914,4.5 L34.5018809,4.5 C35.3292692,4.5 36,5.16579723 36,6 C36,6.82842712 35.3275047,7.5 34.5018809,7.5 L5.99811914,7.5 C5.17073078,7.5 4.5,6.83420277 4.5,6 Z" id="Combined-Shape" fill="#d6d8da"></path>
            <path d="M19.5,30 C16.1862915,30 13.5,26.9779221 13.5,23.25 C13.5,19.5220779 16.1862915,16.5 19.5,16.5 C22.8137085,16.5 25.5,19.5220779 25.5,23.25 C25.5,26.9779221 22.8137085,30 19.5,30 Z M7.5,37.5 C7.49999999,36 10.5,31.5 13.5,31.5 C16.5,31.5 15,33 19.5,33 C24,33 22.5,31.5 25.5,31.5 C28.5,31.5 31.5,36 31.5,37.5 C31.5,39 31.5,40.5 30,40.5 L9,40.5 C7.5,40.5 7.50000001,39 7.5,37.5 Z" id="icon-user-16" fill="#5d6165"></path>
        </g>
    </g>
</svg>
