<svg width="16" height="16" viewBox="0 0 16 16" fill="none" xmlns="http://www.w3.org/2000/svg">
<rect width="16" height="16" fill="white"/>
<path d="M8.0001 15.059C14.8283 12.3888 14.2976 8.59276 13.9438 2.93081C11.7503 2.8343 9.80445 2.15873 8.0001 1.03278C6.19576 2.15873 4.2499 2.8343 2.05638 2.93081C1.70258 8.59276 1.1719 12.3888 8.0001 15.059Z" fill="#383941"/>
<path d="M8 0L7.53741 0.288665C5.84578 1.34429 4.0443 1.96586 2.01789 2.05502L1.23215 2.08959L1.183 2.87604C1.16841 3.10958 1.15324 3.34193 1.13816 3.57294C0.975876 6.05878 0.823666 8.39029 1.50662 10.3994C2.294 12.7158 4.1206 14.483 7.68187 15.8756L8 16V15.059C1.43951 12.4935 1.67218 8.88869 2.0143 3.58822C2.02826 3.37192 2.0424 3.1528 2.05627 2.93081C4.24979 2.8343 6.19566 2.15873 8 1.03277V0Z" fill="#E0E0E0"/>
<path d="M8 0L8.46259 0.288665C10.1542 1.34429 11.9557 1.96586 13.9821 2.05502L14.7679 2.08959L14.817 2.87604C14.8316 3.10958 14.8468 3.34193 14.8618 3.57294C15.0241 6.05878 15.1763 8.39029 14.4934 10.3994C13.706 12.7158 11.8794 14.483 8.31813 15.8756L8 16V15.059C14.5605 12.4935 14.3278 8.88869 13.9857 3.58822C13.9717 3.37192 13.9576 3.1528 13.9437 2.93081C11.7502 2.8343 9.80434 2.15873 8 1.03277V0Z" fill="#A0A0A0"/>
<path d="M5.84232 5.51419H6.15273C6.2767 5.51419 6.3956 5.56295 6.48326 5.64976C6.57092 5.73657 6.62017 5.8543 6.62017 5.97706V10.6758H5.37489V5.97706C5.37489 5.8543 5.42413 5.73657 5.51179 5.64976C5.59946 5.56295 5.71835 5.51419 5.84232 5.51419ZM7.99909 7.80217H8.3095C8.43347 7.80217 8.55237 7.85094 8.64003 7.93774C8.72769 8.02455 8.77694 8.14229 8.77694 8.26505V10.6758H7.53166V8.26505C7.53166 8.14229 7.5809 8.02455 7.66857 7.93774C7.75623 7.85094 7.87512 7.80217 7.99909 7.80217ZM10.2844 6.91711H10.5948C10.7188 6.91711 10.8377 6.96587 10.9253 7.05268C11.013 7.13949 11.0623 7.25722 11.0623 7.37998V10.6758H9.81698V7.37998C9.81698 7.25722 9.86622 7.13949 9.95388 7.05268C10.0415 6.96587 10.1604 6.91711 10.2844 6.91711Z" fill="#E0E0E0"/>
</svg>
