<svg xmlns="http://www.w3.org/2000/svg" width="48" height="48" viewBox="0 0 48 48">
  <g fill="none" fill-rule="evenodd">
    <path fill-rule="evenodd" clip-rule="evenodd" d="M43.3016 1.48149C44.1403 2.20034 44.2374 3.46294 43.5186 4.30159L31.5186 18.3016C30.9894 18.919 30.139 19.1545 29.3676 18.8974L18.4245 15.2497L7.28042 24.5364C6.43187 25.2436 5.17074 25.1289 4.46361 24.2804C3.75648 23.4318 3.87113 22.1707 4.71968 21.4636L16.7197 11.4636C17.2518 11.0202 17.9754 10.8836 18.6325 11.1026L29.3567 14.6774L40.4815 1.69842C41.2004 0.859771 42.463 0.762648 43.3016 1.48149Z" fill="#D6D8DA"/>
    <path fill-rule="evenodd" clip-rule="evenodd" d="M42 6C43.6569 6 45 4.65685 45 3C45 1.34315 43.6569 0 42 0C40.3431 0 39 1.34315 39 3C39 4.65685 40.3431 6 42 6ZM18 16C19.6569 16 21 14.6569 21 13C21 11.3431 19.6569 10 18 10C16.3431 10 15 11.3431 15 13C15 14.6569 16.3431 16 18 16ZM6 26C7.65685 26 9 24.6569 9 23C9 21.3431 7.65685 20 6 20C4.34315 20 3 21.3431 3 23C3 24.6569 4.34315 26 6 26ZM33 17C33 18.6569 31.6569 20 30 20C28.3431 20 27 18.6569 27 17C27 15.3431 28.3431 14 30 14C31.6569 14 33 15.3431 33 17Z" fill="#95999D"/>
    <path fill-rule="evenodd" clip-rule="evenodd" d="M40 16C38.8954 16 38 16.8954 38 18V46C38 47.1046 38.8954 48 40 48H44C45.1046 48 46 47.1046 46 46V18C46 16.8954 45.1046 16 44 16H40ZM16 26C14.8954 26 14 26.8954 14 28V46C14 47.1046 14.8954 48 16 48H20C21.1046 48 22 47.1046 22 46V28C22 26.8954 21.1046 26 20 26H16ZM4 36C2.89543 36 2 36.8954 2 38V46C2 47.1046 2.89543 48 4 48H8C9.10457 48 10 47.1046 10 46V38C10 36.8954 9.10457 36 8 36H4ZM26 32C26 30.8954 26.8954 30 28 30H32C33.1046 30 34 30.8954 34 32V46C34 47.1046 33.1046 48 32 48H28C26.8954 48 26 47.1046 26 46V32Z" fill="#5D6165"/>
  </g>
</svg>
