<svg width="16" height="16" viewBox="0 0 16 16" fill="none" xmlns="http://www.w3.org/2000/svg">
<rect width="16" height="16" fill="white"/>
<path d="M8.2756 5.90763H7.72419C7.50397 5.90763 7.29276 5.99426 7.13704 6.14846C6.98132 6.30267 6.89383 6.51181 6.89383 6.72988V12.5846H9.10596V6.72988C9.10596 6.51181 9.01847 6.30267 8.86275 6.14846C8.70703 5.99426 8.49583 5.90763 8.2756 5.90763Z" fill="#7B7B7B"/>
<path d="M11.8283 3.41546H11.2769C11.0567 3.41546 10.8455 3.50209 10.6898 3.65629C10.5341 3.81049 10.4466 4.01964 10.4466 4.23771V12.5846H12.6587V4.23771C12.6587 4.01964 12.5712 3.81049 12.4155 3.65629C12.2598 3.50209 12.0486 3.41546 11.8283 3.41546Z" fill="#7B7B7B"/>
<path d="M4.72262 7.4798H4.17121C3.95099 7.4798 3.73978 7.56643 3.58406 7.72063C3.42834 7.87483 3.34086 8.08398 3.34086 8.30205V12.5845H5.55298V8.30205C5.55298 8.08398 5.46549 7.87483 5.30977 7.72063C5.15405 7.56643 4.94285 7.4798 4.72262 7.4798Z" fill="#7B7B7B"/>
</svg>
