<svg width="48" height="48" viewBox="0 0 48 48" fill="none" xmlns="http://www.w3.org/2000/svg">
  <path fill-rule="evenodd" clip-rule="evenodd"
    d="M0 6.87159C0 5.56178 1.05569 4.50015 2.37619 4.50015H35.6238C36.936 4.50015 38 5.56178 38 6.87159V33.0037C38 34.3123 36.9443 35.3752 35.6238 35.3752H2.37619C1.064 35.3752 0 34.3123 0 33.0037V6.87159Z"
    fill="#D1D5DB" />
  <path fill-rule="evenodd" clip-rule="evenodd"
    d="M9.5 16.375C11.4677 16.375 13.0625 14.7802 13.0625 12.8125C13.0625 10.8448 11.4677 9.25003 9.5 9.25003C7.53231 9.25003 5.9375 10.8448 5.9375 12.8125C5.9375 14.7802 7.53231 16.375 9.5 16.375"
    fill="white" />
  <circle cx="36" cy="36" r="12" fill="#5D6165" />
  <path fill-rule="evenodd" clip-rule="evenodd"
    d="M42.2494 35.0783C42.3014 35.3371 42.3274 35.646 42.3274 36.0037C42.3274 36.3615 42.3014 36.6694 42.2494 36.9292L43.8699 38.2624C44.0001 38.3484 44.0321 38.4653 43.968 38.6142C43.6427 39.5646 43.1092 40.4401 42.3665 41.2416C42.2624 41.3656 42.1372 41.3965 41.9951 41.3356L39.9641 40.668C39.4436 41.0637 38.8841 41.3726 38.2845 41.5944L37.8751 43.5932C37.849 43.7402 37.7579 43.8271 37.6018 43.8521C37.0412 43.952 36.5077 44 36.0002 44C35.4927 44 34.9582 43.951 34.3987 43.8521C34.2425 43.8281 34.1514 43.7412 34.1254 43.5932L33.716 41.5944C33.0774 41.3606 32.5178 41.0508 32.0363 40.668L30.0053 41.3356C29.8612 41.3975 29.7381 41.3656 29.634 41.2416C28.8922 40.4401 28.3587 39.5646 28.0324 38.6142C27.9673 38.4663 28.0004 38.3484 28.1305 38.2624L29.7511 36.9292C29.699 36.6694 29.673 36.3625 29.673 36.0037C29.673 35.646 29.699 35.3371 29.7511 35.0783L28.1305 33.7461C28.0004 33.6601 27.9673 33.5422 28.0324 33.3943C28.3577 32.4449 28.8912 31.5684 29.634 30.7669C29.7381 30.6439 29.8622 30.6129 30.0053 30.6739L32.0363 31.3405C32.5168 30.9577 33.0774 30.6499 33.716 30.4151L34.1254 28.4163C34.1514 28.2683 34.2425 28.1824 34.3987 28.1574C35.4657 27.9475 36.5337 27.9475 37.6008 28.1574C37.7569 28.1814 37.848 28.2683 37.8741 28.4163L38.2835 30.4151C38.8831 30.6379 39.4426 30.9458 39.9631 31.3405L41.9941 30.6739C42.1372 30.6119 42.2614 30.6439 42.3655 30.7669C43.1072 31.5694 43.6407 32.4449 43.967 33.3943C44.0311 33.5422 43.9991 33.6601 43.8689 33.7461L42.2494 35.0783V35.0783ZM36 32.5C34.0671 32.5 32.5 34.0671 32.5 36C32.5 37.9329 34.0671 39.5 36 39.5C37.9329 39.5 39.5 37.9329 39.5 36C39.5 34.0671 37.9329 32.5 36 32.5V32.5Z"
    fill="white" />
  <path fill-rule="evenodd" clip-rule="evenodd"
    d="M22.9116 14.8385C23.3724 14.3766 24.1276 14.3766 24.5884 14.8385L32.2561 22.5062C26.5344 24.0903 22.2842 29.2159 22.0137 35.3751H2.37738C1.06994 35.3751 0 34.3064 0 32.9978V28.2501L7.47413 20.776C7.93725 20.3129 8.68775 20.3129 9.15088 20.776L11.8631 23.4871L6.19044 29.1811C5.86387 29.5101 5.86388 30.0421 6.19163 30.3686C6.52056 30.6964 7.05256 30.6964 7.38031 30.3686L13.0625 24.6876L22.9116 14.8385Z"
    fill="#5D6165" />
</svg>