<svg width="48" height="48" viewBox="0 0 48 48" fill="none" xmlns="http://www.w3.org/2000/svg">
  <path fill-rule="evenodd" clip-rule="evenodd"
    d="M24 0C37.255 0 48 10.745 48 24C48 37.255 37.255 48 24 48C10.745 48 0 37.255 0 24C0 10.745 10.745 0 24 0"
    fill="#D6D8DA" />
  <path fill-rule="evenodd" clip-rule="evenodd"
    d="M17.2592 20.4911L25.2868 16.4773C25.2625 16.2799 25.25 16.0789 25.25 15.875C25.25 13.1826 27.4326 11 30.125 11C32.8174 11 35 13.1826 35 15.875C35 18.5674 32.8174 20.75 30.125 20.75C28.8105 20.75 27.6175 20.2298 26.7408 19.3839L18.7132 23.3977C18.7375 23.5951 18.75 23.7961 18.75 24C18.75 24.2039 18.7375 24.4049 18.7132 24.6023L26.7408 28.6161C27.6175 27.7702 28.8105 27.25 30.125 27.25C32.8174 27.25 35 29.4326 35 32.125C35 34.8174 32.8174 37 30.125 37C27.4326 37 25.25 34.8174 25.25 32.125C25.25 31.9211 25.2625 31.7201 25.2868 31.5227L17.2592 27.5089C16.3825 28.3548 15.1895 28.875 13.875 28.875C11.1826 28.875 9 26.6924 9 24C9 21.3076 11.1826 19.125 13.875 19.125C15.1895 19.125 16.3825 19.6452 17.2592 20.4911Z"
    fill="#5D6165" />
</svg>