<svg width="48" height="48" viewBox="0 0 48 48" fill="none" xmlns="http://www.w3.org/2000/svg">
<path fill-rule="evenodd" clip-rule="evenodd" d="M42 0H6C2.692 0 0 2.692 0 6V42C0 45.308 2.692 48 6 48H42C45.308 48 48 45.308 48 42V6C48 2.692 45.308 0 42 0Z" fill="#D6D8DA"/>
<path fill-rule="evenodd" clip-rule="evenodd" d="M24.0003 6.00027C33.9414 6.00027 42.0003 14.0591 42.0003 24.0003C42.0003 33.9414 33.9414 42.0003 24.0003 42.0003C16.7853 42.0003 10.3625 37.7155 7.5163 31.2408L7.32448 30.7878C6.90774 29.7648 7.39916 28.5977 8.4221 28.181C9.39632 27.7841 10.5013 28.2109 10.9643 29.1362L11.066 29.3688C13.22 34.5516 18.2911 38.0003 24.0003 38.0003C31.7323 38.0003 38.0003 31.7323 38.0003 24.0003C38.0003 16.2683 31.7323 10.0003 24.0003 10.0003C19.6831 10.0003 15.7122 11.9698 13.0963 15.2166C13.8622 14.8267 14.8103 14.9698 15.4263 15.5979L15.5364 15.7196C16.2082 16.5258 16.1383 17.7042 15.4021 18.4263L15.2804 18.5365L9.28037 23.5365C8.01719 24.5891 6.11924 23.75 6.00537 22.152L6 22V14C6 12.8954 6.89543 12 8 12C8.74576 12 9.39618 12.4082 9.74006 13.0133C13.0956 8.65876 18.316 6.00027 24.0003 6.00027ZM24 14C25.104 14 26 14.896 26 16V23.172L29.414 26.586C30.196 27.368 30.196 28.632 29.414 29.414C29.024 29.804 28.512 30 28 30C27.488 30 26.976 29.804 26.586 29.414L22.586 25.416C22.402 25.23 22.256 25.008 22.154 24.764C22.054 24.52 22 24.26 22 24V16C22 14.896 22.896 14 24 14Z" fill="#5D6165"/>
</svg>
