<svg xmlns="http://www.w3.org/2000/svg" width="32" height="32" viewBox="0 0 32 32">
  <g fill="none" fill-rule="evenodd" transform="translate(-224 -160)">
    <g transform="translate(225 161)">
      <rect width="30" height="30" fill="#FDD5D5" rx="2"/>
      <path fill="#F52D2D" d="M0 1.99810135C0 .894580447.89784041 0 1.99161703 0L28.008383 0C29.1083227 0 30 .886706352 30 1.99810135L30 8 0 8 0 1.99810135zM8.152 22.52L10.496 22.52 10.496 15.776C10.496 15.5146654 10.5039999 15.2400014 10.52 14.952L8.856 16.344C8.78666632 16.402667 8.71600036 16.4426666 8.644 16.464 8.57199964 16.4853334 8.50133368 16.496 8.432 16.496 8.3253328 16.496 8.22800044 16.4733336 8.14 16.428 8.05199956 16.3826664 7.98666688 16.330667 7.944 16.272L7.32 15.416 10.848 12.416 12.472 12.416 12.472 22.52 14.552 22.52 14.552 24 8.152 24 8.152 22.52zM24.048 12.432L24.048 13.288C24.048 13.5440013 24.0200003 13.7506659 23.964 13.908 23.9079997 14.0653341 23.8533336 14.1973328 23.8 14.304L19.424 23.328C19.3333329 23.5146676 19.2053342 23.6733327 19.04 23.804 18.8746658 23.9346673 18.6506681 24 18.368 24L16.936 24 21.416 15.16C21.6026676 14.7973315 21.8106655 14.4853346 22.04 14.224L16.504 14.224C16.3813327 14.224 16.2746671 14.1786671 16.184 14.088 16.0933329 13.9973329 16.048 13.8906673 16.048 13.768L16.048 12.432 24.048 12.432z"/>
    </g>
  </g>
</svg>
