<svg version="1" xmlns="http://www.w3.org/2000/svg" width="933.333" height="933.333" viewBox="0 0 700.000000 700.000000"><path d="M58.5 23.1c-4.6 1.3-10 6.3-12.5 11.6-2.3 4.8-2.3 4.9-2.2 55.8v51L40.4 157c-3.5 15.9-4.1 18.7-5 23-.3 1.4-.8 3.4-1.1 4.5-.3 1.1-.7 2.9-.9 4-.1 1.1-1.6 8.1-3.4 15.5-2.6 11.5-6.1 27.3-7.5 34.5-.3 1.1-1.3 5.8-2.5 10.5-1.9 8.2-10.8 48.4-11.6 52.5-.2 1.1-.8 3.8-1.3 6-1.2 4.9-4 17.3-4.5 20-.3 1.1-.9 4-1.5 6.5-.6 2.6-1 18.9-1.1 38.5-.1 38.2.4 41.6 6.2 47.2 6.2 5.9 9 6.6 23.8 6.7l13.5.1.1 115c0 63.3.4 116.7.8 118.9 1.6 8.4 6.8 13.9 16 17 1 .3 82.3.6 180.7.6 148.7 0 179.4-.2 182.2-1.3 5.1-2.2 9.8-6.7 12.1-11.7 2-4.5 2-5.8 2.1-120.7 0-63.9.3-116.4.6-116.7.6-.6 20.4-.7 118-.6h34.5v116.4c0 108.4.1 116.6 1.8 120.9 1.9 5.1 6.8 9.9 12.3 12.2 4.2 1.8 30.5 2.1 36.3.5 5-1.4 10.5-6.2 13.1-11.6l2.2-4.7.1-117 .1-117.1 13.5-.1c11.5-.1 14.1-.5 17.5-2.2 4.9-2.6 7.9-5.7 10.4-10.9 1.8-3.6 2-6.4 2-38.4.1-34.3-.3-40.5-3.9-54-.5-1.9-1.1-4.7-1.4-6.3-.3-1.5-.7-3.5-1-4.5-.3-.9-.7-2.8-1-4.2-.2-1.4-3.7-16.9-7.6-34.5-3.9-17.6-7.3-32.9-7.6-34-.2-1.1-3.8-17.3-8-36s-7.8-35.1-8-36.5c-.3-1.3-1.5-6.3-2.6-11-2-8-2.2-11.3-2.4-60.5-.1-34-.5-53.4-1.3-56-1.3-4.8-5.9-10.7-10.4-13.2-3.1-1.7-15.2-1.8-293.2-2-165.6-.1-291.3.3-293 .8zm291.5 480v76.5H240.8l-109.3-.1-.2-74.5c-.1-41 0-75.4.2-76.5.4-2 1.2-2 109.5-2h109v76.6z"/></svg>