<svg xmlns="http://www.w3.org/2000/svg" xmlns:xlink="http://www.w3.org/1999/xlink"><defs><style>
    .sprite-symbol-usage {display: none;}
    .sprite-symbol-usage:target {display: inline;}
  </style><symbol viewBox="0 0 52 52" id="icon-cozy">
  <path fill="#FFFFFF" fill-rule="evenodd" d="M558.23098,44 L533.76902,44 C526.175046,44 520,37.756072 520,30.0806092 C520,26.4203755 521.393962,22.9628463 523.927021,20.3465932 C526.145918,18.0569779 529.020185,16.6317448 532.129554,16.2609951 C532.496769,13.1175003 533.905295,10.2113693 536.172045,7.96901668 C538.760238,5.40737823 542.179607,4 545.800788,4 C549.420929,4 552.841339,5.40737823 555.429532,7.96796639 C557.686919,10.2008665 559.091284,13.0912433 559.467862,16.2179336 C566.482405,16.8533543 572,22.8284102 572,30.0816594 C572,37.756072 565.820793,44 558.22994,44 L558.23098,44 Z M558.068077,40.9989547 L558.171599,40.9989547 C564.142748,40.9989547 569,36.0883546 569,30.0520167 C569,24.0167241 564.142748,19.1061239 558.171599,19.1061239 L558.062901,19.1061239 C557.28338,19.1061239 556.644649,18.478972 556.627051,17.6887604 C556.492472,11.7935317 551.63729,7 545.802791,7 C539.968291,7 535.111039,11.7956222 534.977495,17.690851 C534.959896,18.4664289 534.34187,19.0914904 533.573737,19.1092597 C527.743378,19.2451426 523,24.1536522 523,30.0530619 C523,36.0893999 527.857252,41 533.828401,41 L533.916395,41 L533.950557,40.9979094 C533.981614,40.9979094 534.01267,40.9979094 534.043727,41 L558.064971,41 L558.068077,40.9989547 Z M553.766421,29.2227318 C552.890676,28.6381003 552.847676,27.5643091 552.845578,27.5171094 C552.839285,27.2253301 552.606453,26.9957683 552.32118,27.0000592 C552.035908,27.0054228 551.809368,27.2467844 551.814612,27.5364185 C551.81671,27.5750363 551.831393,28.0792139 552.066323,28.6735 C548.949302,31.6942753 544.051427,31.698566 540.928113,28.6917363 C541.169336,28.0888684 541.185068,27.576109 541.185068,27.5374911 C541.190312,27.2478572 540.964821,27.0086409 540.681646,27.0011319 C540.401618,26.9925502 540.163541,27.2264027 540.154102,27.5160368 C540.154102,27.5589455 540.11215,28.6370275 539.234308,29.2216592 C538.995183,29.3825669 538.92806,29.7097461 539.08433,29.9532532 C539.182917,30.1077246 539.346529,30.1924694 539.516434,30.1924694 C539.612923,30.1924694 539.710461,30.1645787 539.797512,30.1066519 C540.023003,29.9564713 540.211786,29.7848363 540.370154,29.6024742 C542.104862,31.2008247 544.296845,32 546.488828,32 C548.686055,32 550.883282,31.1976066 552.621136,29.5917471 C552.780553,29.7762546 552.971434,29.9521804 553.203218,30.1066519 C553.289219,30.1645787 553.387806,30.1924694 553.484295,30.1924694 C553.652102,30.1924694 553.816763,30.1066519 553.916399,29.9521804 C554.07162,29.7076006 554.004497,29.3793488 553.766421,29.2205864 L553.766421,29.2227318 Z" transform="translate(-520)" />
</symbol><symbol viewBox="0 0 24 24" id="icon-shield">
  <path fill="#FFFFFF" d="M217.75,36.3902423 C217.75,49.4794073 223.150583,52.8996694 227.993343,56 C232.836131,52.8996694 238.237797,49.4794073 238.237797,36.3902423 L227.993343,32 L217.75,36.3902423 Z" transform="translate(-216 -32)" />
</symbol><symbol viewBox="0 0 48 48" id="icon-fallback">
  <g fill="none" fill-rule="evenodd">
    <path fill="#D1D5DB" d="M8,0 L33.0857864,0 L33.0857864,-6.10622664e-15 C33.3510029,-7.09718437e-15 33.6053568,0.10535684 33.7928932,0.292893219 L43.7071068,10.2071068 L43.7071068,10.2071068 C43.8946432,10.3946432 44,10.6489971 44,10.9142136 L44,45 L44,45 C44,46.6568542 42.6568542,48 41,48 L8,48 L8,48 C6.34314575,48 5,46.6568542 5,45 L5,3 L5,3 C5,1.34314575 6.34314575,3.04359188e-16 8,0 Z" />
    <path fill="#A3ACB8" d="M32,2.57127653e-13 L32,12 L44,12 L44,10.9142136 L44,10.9142136 C44,10.6489971 43.8946432,10.3946432 43.7071068,10.2071068 L33.7928932,0.292893219 L33.7928932,0.292893219 C33.6053568,0.10535684 33.3510029,2.42102908e-14 33.0857864,6.97220059e-14 L32,2.57127653e-13 Z" />
  </g>
</symbol><symbol viewBox="0 0 48 48" id="icon-settings">
  <g fill="none" fill-rule="evenodd">
    <path fill="#C0C3C7" d="M36.2425255,8.8211815 L39.5111415,6.27892461 C39.7313711,6.10763486 40.0624627,6.12133721 40.2601955,6.31906999 L41.68093,7.73980451 C41.8743914,7.93326595 41.8937032,8.26690844 41.7210754,8.48885854 L39.1788185,11.7574745 C39.909384,12.6621236 40.5607228,13.6334114 41.1222876,14.6607907 L45.1119881,13.563718 C45.3810035,13.4897452 45.6816486,13.6291077 45.7886608,13.8874581 L46.5575568,15.7437372 C46.6622573,15.9965067 46.5524197,16.3121425 46.3079957,16.4511358 L42.7123616,18.4958174 C43.0369,19.6009185 43.2662039,20.7467595 43.3907802,21.9238475 L47.4987259,22.4373407 C47.7755719,22.4719465 48,22.7157526 48,22.995389 L48,25.004611 C48,25.2782068 47.7777346,25.5277832 47.4987259,25.5626593 L43.3907802,26.0761525 C43.2662039,27.2532405 43.0369,28.3990815 42.7123616,29.5041826 L46.3079957,31.5488642 C46.550525,31.6867801 46.664569,31.9979125 46.5575568,32.2562628 L45.7886608,34.1125419 C45.6839602,34.3653115 45.3831051,34.5108327 45.1119881,34.436282 L41.1222876,33.3392093 C40.5607228,34.3665886 39.909384,35.3378764 39.1788185,36.2425255 L41.7210754,39.5111415 C41.8923651,39.7313711 41.8786628,40.0624627 41.68093,40.2601955 L40.2601955,41.68093 C40.0667341,41.8743914 39.7330916,41.8937032 39.5111415,41.7210754 L36.2425255,39.1788185 C35.3378764,39.909384 34.3665886,40.5607228 33.3392093,41.1222876 L34.436282,45.1119881 C34.5102548,45.3810035 34.3708923,45.6816486 34.1125419,45.7886608 L32.2562628,46.5575568 C32.0034933,46.6622573 31.6878575,46.5524197 31.5488642,46.3079957 L29.5041826,42.7123616 C28.3990815,43.0369 27.2532405,43.2662039 26.0761525,43.3907802 L25.5626593,47.4987259 C25.5280535,47.7755719 25.2842474,48 25.004611,48 L22.995389,48 C22.7217932,48 22.4722168,47.7777346 22.4373407,47.4987259 L21.9238475,43.3907802 C20.7467595,43.2662039 19.6009185,43.0369 18.4958174,42.7123616 L16.4511358,46.3079957 C16.3132199,46.550525 16.0020875,46.664569 15.7437372,46.5575568 L13.8874581,45.7886608 C13.6346885,45.6839602 13.4891673,45.3831051 13.563718,45.1119881 L14.6607907,41.1222876 C13.6334114,40.5607228 12.6621236,39.909384 11.7574745,39.1788185 L8.48885854,41.7210754 C8.26862885,41.8923651 7.9375373,41.8786628 7.73980451,41.68093 L6.31906999,40.2601955 C6.12560856,40.0667341 6.10629676,39.7330916 6.27892461,39.5111415 L8.8211815,36.2425255 C8.09061604,35.3378764 7.43927722,34.3665886 6.87771242,33.3392093 L2.88801192,34.436282 C2.61899647,34.5102548 2.31835142,34.3708923 2.21133921,34.1125419 L1.44244323,32.2562628 C1.33774266,32.0034933 1.44758033,31.6878575 1.6920043,31.5488642 L5.28763841,29.5041826 C4.9631,28.3990815 4.73379612,27.2532405 4.60921975,26.0761525 L0.501274109,25.5626593 C0.224428063,25.5280535 -4.26325641e-14,25.2842474 -4.26325641e-14,25.004611 L-4.26325641e-14,22.995389 C-4.26325641e-14,22.7217932 0.222265363,22.4722168 0.501274109,22.4373407 L4.60921975,21.9238475 C4.73379612,20.7467595 4.9631,19.6009185 5.28763841,18.4958174 L1.6920043,16.4511358 C1.44947495,16.3132199 1.33543102,16.0020875 1.44244323,15.7437372 L2.21133921,13.8874581 C2.31603978,13.6346885 2.61689495,13.4891673 2.88801192,13.563718 L6.87771242,14.6607907 C7.43927722,13.6334114 8.09061604,12.6621236 8.8211815,11.7574745 L6.27892461,8.48885854 C6.10763486,8.26862885 6.12133721,7.9375373 6.31906999,7.73980451 L7.73980451,6.31906999 C7.93326595,6.12560856 8.26690844,6.10629676 8.48885854,6.27892461 L11.7574745,8.8211815 C12.6621236,8.09061604 13.6334114,7.43927722 14.6607907,6.87771242 L13.563718,2.88801192 C13.4897452,2.61899647 13.6291077,2.31835142 13.8874581,2.21133921 L15.7437372,1.44244323 C15.9965067,1.33774266 16.3121425,1.44758033 16.4511358,1.6920043 L18.4958174,5.28763841 C19.6009185,4.9631 20.7467595,4.73379612 21.9238475,4.60921975 L22.4373407,0.501274109 C22.4719465,0.224428063 22.7157526,5.40012479e-13 22.995389,5.40012479e-13 L25.004611,5.40012479e-13 C25.2782068,5.40012479e-13 25.5277832,0.222265363 25.5626593,0.501274109 L26.0761525,4.60921975 C27.2532405,4.73379612 28.3990815,4.9631 29.5041826,5.28763841 L31.5488642,1.6920043 C31.6867801,1.44947495 31.9979125,1.33543102 32.2562628,1.44244323 L34.1125419,2.21133921 C34.3653115,2.31603978 34.5108327,2.61689495 34.436282,2.88801192 L33.3392093,6.87771242 C34.3665886,7.43927722 35.3378764,8.09061604 36.2425255,8.8211815 Z M8.99959801,24 C8.99959801,32.283972 15.716028,39.000402 24,39.000402 C32.283972,39.000402 39.000402,32.283972 39.000402,24 C39.000402,15.716028 32.283972,8.99959801 24,8.99959801 C15.716028,8.99959801 8.99959801,15.716028 8.99959801,24 Z" />
    <path fill="#BFC3C7" d="M24,19.5 C26.485125,19.5 28.5,21.514875 28.5,24 C28.5,26.485125 26.485125,28.5 24,28.5 C21.514875,28.5 19.5,26.485125 19.5,24 C19.5,21.514875 21.514875,19.5 24,19.5 Z M24,25.5 C24.8284271,25.5 25.5,24.8284271 25.5,24 C25.5,23.1715729 24.8284271,22.5 24,22.5 C23.1715729,22.5 22.5,23.1715729 22.5,24 C22.5,24.8284271 23.1715729,25.5 24,25.5 Z" />
    <g fill="#BFC3C7" fill-rule="nonzero" transform="rotate(30 -2.892 34.794)">
      <polygon points="13.294 15.143 12.459 28.095 15.453 28.288 16.288 15.336" />
      <polygon points="18.35 11.473 29.404 3.677 27.675 1.225 16.621 9.021" transform="rotate(1 23.013 6.349)" />
      <polygon points="13.027 8.9 1.831 1.508 .178 4.011 11.374 11.404" />
    </g>
  </g>
</symbol><symbol viewBox="0 0 48 48" id="icon-accounts">
  <g fill="none" fill-rule="evenodd" transform="translate(3)">
    <path fill="#FF9300" fill-rule="nonzero" d="M0,9 C0,38.1783299 11.3111613,43.2993389 20.9966797,48 C30.6822566,43.2993389 42,38.1783299 42,9 L20.9977919,0 L0,9 Z" />
    <path fill="#FFD799" d="M19.5,25.2439414 L19.5,30.5 C19.5,31.0522847 19.9477153,31.5 20.5,31.5 L21.5,31.5 C22.0522847,31.5 22.5,31.0522847 22.5,30.5 L22.5,25.2439414 C24.2477886,24.6261868 25.5,22.9593282 25.5,21 C25.5,18.5147186 23.4852814,16.5 21,16.5 C18.5147186,16.5 16.5,18.5147186 16.5,21 C16.5,22.9593282 17.7522114,24.6261868 19.5,25.2439414 Z M21,37.5 C12.7157288,37.5 6,30.7842712 6,22.5 C6,14.2157288 12.7157288,7.5 21,7.5 C29.2842712,7.5 36,14.2157288 36,22.5 C36,30.7842712 29.2842712,37.5 21,37.5 Z" />
  </g>
</symbol><symbol viewBox="0 0 48 48" id="icon-apps">
  <g fill="none" fill-rule="evenodd">
    <path fill="#BFC3C7" d="M25.3416408,24.6708204 L46.2111456,35.1055728 L46.2111456,35.1055728 C46.7051241,35.3525621 46.9053485,35.9532351 46.6583592,36.4472136 C46.5615955,36.640741 46.404673,36.7976635 46.2111456,36.8944272 L25.3416408,47.3291796 L25.3416408,47.3291796 C24.4970583,47.7514708 23.5029417,47.7514708 22.6583592,47.3291796 L1.78885438,36.8944272 L1.78885438,36.8944272 C1.29487588,36.6474379 1.09465154,36.0467649 1.34164079,35.5527864 C1.43840449,35.359259 1.59532698,35.2023365 1.78885438,35.1055728 L22.6583592,24.6708204 L22.6583592,24.6708204 C23.5029417,24.2485292 24.4970583,24.2485292 25.3416408,24.6708204 Z" />
    <path fill="#B2D3FF" d="M25.3416408,12.6708204 L46.2111456,23.1055728 L46.2111456,23.1055728 C46.7051241,23.3525621 46.9053485,23.9532351 46.6583592,24.4472136 C46.5615955,24.640741 46.404673,24.7976635 46.2111456,24.8944272 L25.3416408,35.3291796 L25.3416408,35.3291796 C24.4970583,35.7514708 23.5029417,35.7514708 22.6583592,35.3291796 L1.78885438,24.8944272 L1.78885438,24.8944272 C1.29487588,24.6474379 1.09465154,24.0467649 1.34164079,23.5527864 C1.43840449,23.359259 1.59532698,23.2023365 1.78885438,23.1055728 L22.6583592,12.6708204 L22.6583592,12.6708204 C23.5029417,12.2485292 24.4970583,12.2485292 25.3416408,12.6708204 Z" />
    <path fill="#197BFF" d="M25.3416408,0.670820393 L46.2111456,11.1055728 L46.2111456,11.1055728 C46.7051241,11.3525621 46.9053485,11.9532351 46.6583592,12.4472136 C46.5615955,12.640741 46.404673,12.7976635 46.2111456,12.8944272 L25.3416408,23.3291796 L25.3416408,23.3291796 C24.4970583,23.7514708 23.5029417,23.7514708 22.6583592,23.3291796 L1.78885438,12.8944272 L1.78885438,12.8944272 C1.29487588,12.6474379 1.09465154,12.0467649 1.34164079,11.5527864 C1.43840449,11.359259 1.59532698,11.2023365 1.78885438,11.1055728 L22.6583592,0.670820393 L22.6583592,0.670820393 C23.5029417,0.248529157 24.4970583,0.248529157 25.3416408,0.670820393 Z" />
  </g>
</symbol><symbol viewBox="0 0 48 48" id="icon-bank-accounts">
  <g fill="none" fill-rule="evenodd">
    <rect width="46" height="40" y="4" fill="#FFE2A1" />
    <path fill="#FF9126" d="M38,18 L46,18 C47.1045695,18 48,18.8954305 48,20 L48,28 C48,29.1045695 47.1045695,30 46,30 L38,30 C34.6862915,30 32,27.3137085 32,24 L32,24 L32,24 C32,20.6862915 34.6862915,18 38,18 L38,18 Z M38,26 C39.1045695,26 40,25.1045695 40,24 C40,22.8954305 39.1045695,22 38,22 C36.8954305,22 36,22.8954305 36,24 C36,25.1045695 36.8954305,26 38,26 Z" />
  </g>
</symbol><symbol viewBox="0 0 48 48" id="icon-bank-groups">
  <g fill="none" fill-rule="evenodd">
    <rect width="38" height="32" fill="#FFE2A1" />
    <path fill="#FF9126" d="M31,12 L38,12 C39.1045695,12 40,12.8954305 40,14 L40,20 C40,21.1045695 39.1045695,22 38,22 L31,22 C28.2385763,22 26,19.7614237 26,17 L26,17 L26,17 C26,14.2385763 28.2385763,12 31,12 L31,12 Z M31,19 C32.1045695,19 33,18.1045695 33,17 C33,15.8954305 32.1045695,15 31,15 C29.8954305,15 29,15.8954305 29,17 C29,18.1045695 29.8954305,19 31,19 Z" />
    <g transform="translate(24 24)">
      <circle cx="12" cy="12" r="12" fill="#FF9126" />
      <path fill="#FFFFFF" fill-rule="nonzero" d="M5.29194944,13.7099466 C4.89985674,13.3178539 4.9055206,12.6764822 5.29194944,12.2900534 L11.8720562,5.70994663 C12.2641489,5.31785393 13.0350391,5 13.5790329,5 L19.5849727,5 C20.1356172,5 20.5820028,5.45303631 20.5820028,5.99703014 L20.5820028,12.0029699 C20.5820028,12.5536144 20.258485,13.3235178 19.8720562,13.7099466 L13.2919494,20.2900534 C12.8998567,20.6821461 12.258485,20.6764822 11.8720562,20.2900534 L5.29194944,13.7099466 Z M16.5800018,11 C17.6845713,11 18.5800018,10.1045695 18.5800018,9 C18.5800018,7.8954305 17.6845713,7 16.5800018,7 C15.4754323,7 14.5800018,7.8954305 14.5800018,9 C14.5800018,10.1045695 15.4754323,11 16.5800018,11 Z" transform="matrix(-1 0 0 1 25.582 0)" />
    </g>
  </g>
</symbol><symbol viewBox="0 0 48 48" id="icon-bill">
  <g fill="none" fill-rule="evenodd" transform="translate(-480 -192)">
    <g transform="translate(487 193)">
      <path fill="#C2F0D1" d="M1.9999204,46 C0.895394863,46 0,45.1017583 0,43.9938589 L0,2.0061411 C0,0.898179965 0.889673948,0 1.991155,0 L22,0 L34,12 L34,44.0000796 C34,45.1046051 33.1080589,46 32.0000796,46 L1.9999204,46 Z" />
      <path fill="#35CE68" d="M22,0 L22,9.9914698 C22,11.1007504 22.9019504,12 24.0085302,12 L34,12 L22,0 Z" />
      <polygon stroke="#35CE68" stroke-width="2" points="28 40 6 40 6 16 28 16" stroke-linecap="round" stroke-linejoin="round" />
      <path stroke="#35CE68" stroke-width="2" d="M6 21L28 21M6 27L28 27M6 33L28 33M13 16L13 40" stroke-linecap="round" stroke-linejoin="round" />
    </g>
  </g>
</symbol><symbol viewBox="0 0 48 48" id="icon-files">
  <g fill="none" fill-rule="evenodd">
    <rect width="48" height="39" y="6" fill="#B2D3FF" rx="2" />
    <path fill="#197BFF" d="M2,3 L20.1715729,3 L20.1715729,3 C20.7020059,3 21.2107137,3.21071368 21.5857864,3.58578644 L23.4142136,5.41421356 L23.4142136,5.41421356 C23.7892863,5.78928632 24.2979941,6 24.8284271,6 L45,6 L45,6 C46.6568542,6 48,7.34314575 48,9 L48,9 L24.8284271,9 L24.8284271,9 C24.2979941,9 23.7892863,9.21071368 23.4142136,9.58578644 L21.5857864,11.4142136 L21.5857864,11.4142136 C21.2107137,11.7892863 20.7020059,12 20.1715729,12 L0,12 L0,5 L0,5 C-1.3527075e-16,3.8954305 0.8954305,3 2,3 Z" />
  </g>
</symbol><symbol viewBox="0 0 48 48" id="icon-konnectors">
  <g fill="none" fill-rule="evenodd">
    <circle cx="24" cy="24" r="24" fill="#CEBEF7" />
    <path fill="#855CEA" d="M24,14 C20.6862915,14 18,11.3137085 18,8 C18,4.6862915 20.6862915,2 24,2 C27.3137085,2 30,4.6862915 30,8 C30,11.3137085 27.3137085,14 24,14 Z M32.660254,19 C31.0033998,16.1302443 31.9866507,12.4607018 34.8564065,10.8038476 C37.7261622,9.14699333 41.3957046,10.1302443 43.0525589,13 C44.7094131,15.8697557 43.7261622,19.5392982 40.8564065,21.1961524 C37.9866507,22.8530067 34.3171083,21.8697557 32.660254,19 Z M32.660254,29 C34.3171083,26.1302443 37.9866507,25.1469933 40.8564065,26.8038476 C43.7261622,28.4607018 44.7094131,32.1302443 43.0525589,35 C41.3957046,37.8697557 37.7261622,38.8530067 34.8564065,37.1961524 C31.9866507,35.5392982 31.0033998,31.8697557 32.660254,29 Z M24,34 C27.3137085,34 30,36.6862915 30,40 C30,43.3137085 27.3137085,46 24,46 C20.6862915,46 18,43.3137085 18,40 C18,36.6862915 20.6862915,34 24,34 Z M15.339746,29 C16.9966002,31.8697557 16.0133493,35.5392982 13.1435935,37.1961524 C10.2738378,38.8530067 6.60429537,37.8697557 4.94744112,35 C3.29058687,32.1302443 4.2738378,28.4607018 7.14359354,26.8038476 C10.0133493,25.1469933 13.6828917,26.1302443 15.339746,29 Z M15.339746,19 C13.6828917,21.8697557 10.0133493,22.8530067 7.14359354,21.1961524 C4.2738378,19.5392982 3.29058687,15.8697557 4.94744112,13 C6.60429537,10.1302443 10.2738378,9.14699333 13.1435935,10.8038476 C16.0133493,12.4607018 16.9966002,16.1302443 15.339746,19 Z M24,30 C20.6862915,30 18,27.3137085 18,24 C18,20.6862915 20.6862915,18 24,18 C27.3137085,18 30,20.6862915 30,24 C30,27.3137085 27.3137085,30 24,30 Z" />
  </g>
</symbol><symbol viewBox="0 0 48 48" id="icon-konnectors-result">
  <g fill="none" fill-rule="evenodd">
    <circle cx="24" cy="24" r="24" fill="#B5EDBD" />
    <path fill="#1EC737" d="M24,14 C20.6862915,14 18,11.3137085 18,8 C18,4.6862915 20.6862915,2 24,2 C27.3137085,2 30,4.6862915 30,8 C30,11.3137085 27.3137085,14 24,14 Z M32.660254,19 C31.0033998,16.1302443 31.9866507,12.4607018 34.8564065,10.8038476 C37.7261622,9.14699333 41.3957046,10.1302443 43.0525589,13 C44.7094131,15.8697557 43.7261622,19.5392982 40.8564065,21.1961524 C37.9866507,22.8530067 34.3171083,21.8697557 32.660254,19 Z M32.660254,29 C34.3171083,26.1302443 37.9866507,25.1469933 40.8564065,26.8038476 C43.7261622,28.4607018 44.7094131,32.1302443 43.0525589,35 C41.3957046,37.8697557 37.7261622,38.8530067 34.8564065,37.1961524 C31.9866507,35.5392982 31.0033998,31.8697557 32.660254,29 Z M24,34 C27.3137085,34 30,36.6862915 30,40 C30,43.3137085 27.3137085,46 24,46 C20.6862915,46 18,43.3137085 18,40 C18,36.6862915 20.6862915,34 24,34 Z M15.339746,29 C16.9966002,31.8697557 16.0133493,35.5392982 13.1435935,37.1961524 C10.2738378,38.8530067 6.60429537,37.8697557 4.94744112,35 C3.29058687,32.1302443 4.2738378,28.4607018 7.14359354,26.8038476 C10.0133493,25.1469933 13.6828917,26.1302443 15.339746,29 Z M15.339746,19 C13.6828917,21.8697557 10.0133493,22.8530067 7.14359354,21.1961524 C4.2738378,19.5392982 3.29058687,15.8697557 4.94744112,13 C6.60429537,10.1302443 10.2738378,9.14699333 13.1435935,10.8038476 C16.0133493,12.4607018 16.9966002,16.1302443 15.339746,19 Z M24,30 C20.6862915,30 18,27.3137085 18,24 C18,20.6862915 20.6862915,18 24,18 C27.3137085,18 30,20.6862915 30,24 C30,27.3137085 27.3137085,30 24,30 Z" />
    <circle cx="36" cy="36" r="12" fill="#1EC737" />
    <path fill="#FFFFFF" fill-rule="nonzero" d="M31.7071068,37.2928932 C31.3165825,36.9023689 30.6834175,36.9023689 30.2928932,37.2928932 C29.9023689,37.6834175 29.9023689,38.3165825 30.2928932,38.7071068 L32.2928932,40.7071068 C32.6834175,41.0976311 33.3165825,41.0976311 33.7071068,40.7071068 L41.7071068,32.7071068 C42.0976311,32.3165825 42.0976311,31.6834175 41.7071068,31.2928932 C41.3165825,30.9023689 40.6834175,30.9023689 40.2928932,31.2928932 L33,38.5857864 L31.7071068,37.2928932 Z" />
  </g>
</symbol><symbol viewBox="0 0 48 48" id="icon-photos-album">
  <defs>
    <path id="icon-photos-album_a" d="M0,0 L32,0 L32,26 L0,26 L0,0 Z M0,0 L0,20 L23,20 C24.6568542,20 26,18.6568542 26,17 L26,0 L0,0 Z" />
    <path id="icon-photos-album_c" d="M0,0 L32,0 L32,26 L0,26 L0,0 Z M0,0 L0,20 L23,20 C24.6568542,20 26,18.6568542 26,17 L26,0 L0,0 Z" />
  </defs>
  <g fill="none" fill-rule="evenodd">
    <g transform="translate(8 11)">
      <mask id="icon-photos-album_b" fill="white">
        <use xlink:href="#icon-photos-album_a" />
      </mask>
      <rect width="32" height="26" fill="#8EE39B" mask="url(#icon-photos-album_b)" rx="2" />
      <path fill="#1EC737" d="M0,20 L6.29028051,13.7097195 C6.68224776,13.3177522 7.31387329,13.3138733 7.70591205,13.7059121 L11,17 L19.2937851,8.7062149 C19.6838168,8.31618318 20.320971,8.32097101 20.7058543,8.70585426 L32,20 L32,24.0020869 C32,25.1055038 31.1107383,26 29.9982567,26 L2.00174332,26 C0.89621101,26 0,25.1017394 0,24.0020869 L0,20 Z" mask="url(#icon-photos-album_b)" />
    </g>
    <g transform="translate(16 19)">
      <mask id="icon-photos-album_d" fill="white">
        <use xlink:href="#icon-photos-album_c" />
      </mask>
      <rect width="32" height="26" fill="#8EE39B" mask="url(#icon-photos-album_d)" rx="2" />
      <path fill="#1EC737" d="M0,20 L6.29028051,13.7097195 C6.68224776,13.3177522 7.31387329,13.3138733 7.70591205,13.7059121 L11,17 L19.2937851,8.7062149 C19.6838168,8.31618318 20.320971,8.32097101 20.7058543,8.70585426 L32,20 L32,24.0020869 C32,25.1055038 31.1107383,26 29.9982567,26 L2.00174332,26 C0.89621101,26 0,25.1017394 0,24.0020869 L0,20 Z" mask="url(#icon-photos-album_d)" />
    </g>
    <g transform="translate(0 3)">
      <rect width="32" height="26" fill="#8EE39B" rx="2" />
      <path fill="#1EC737" d="M0,20 L6.29028051,13.7097195 C6.68224776,13.3177522 7.31387329,13.3138733 7.70591205,13.7059121 L11,17 L19.2937851,8.7062149 C19.6838168,8.31618318 20.320971,8.32097101 20.7058543,8.70585426 L32,20 L32,24.0020869 C32,25.1055038 31.1107383,26 29.9982567,26 L2.00174332,26 C0.89621101,26 0,25.1017394 0,24.0020869 L0,20 Z" />
      <circle cx="8" cy="7" r="3" fill="#FFFFFF" />
      <path stroke="#8EE39B" stroke-linecap="round" stroke-linejoin="round" d="M11,16 L5.5,21.5 L11,16 Z" />
    </g>
  </g>
</symbol><symbol viewBox="0 0 48 48" id="icon-triggers">
  <g fill="none" fill-rule="evenodd">
    <ellipse cx="24" cy="24.5" fill="#F52D2D" rx="18" ry="18.5" />
    <path fill="#FCBFBF" d="M42,0 C45.308,0 48,2.692 48,6 L48,42 C48,45.308 45.308,48 42,48 L6,48 C2.692,48 0,45.308 0,42 L0,6 C0,2.692 2.692,0 6,0 L42,0 Z M24,40 C32.822,40 40,32.822 40,24 C40,15.178 32.822,8 24,8 C15.178,8 8,15.178 8,24 C8,32.822 15.178,40 24,40 Z M30,24 C30.552,24 31,24.448 31,25 C31,25.552 30.552,26 30,26 L22,26 L22,14 C22,13.448 22.448,13 23,13 C23.552,13 24,13.448 24,14 L24,24 L30,24 Z" />
  </g>
</symbol><symbol viewBox="0 0 48 48" id="icon-permissions">
  <g fill="none" fill-rule="evenodd">
    <rect width="10" height="16" x="19" y="24" fill="#F52D2D" />
    <path fill="#FCBFBF" d="M24,28 C25.102,28 26,28.896 26,30 C26,30.736 25.594,31.374 25,31.72 L25,37 C25,37.55 24.55,38 24,38 C23.448,38 23,37.55 23,37 L23,31.72 C22.404,31.374 22,30.736 22,30 C22,28.896 22.896,28 24,28 Z M6,21 L6,45 L6,45 C6,46.6568542 7.34314575,48 9,48 L39,48 L39,48 C40.6568542,48 42,46.6568542 42,45 L42,21 L42,21 C42,19.3431458 40.6568542,18 39,18 L36,18 L36,12 C36,5.382 30.616,0 24,0 C17.382,0 12,5.382 12,12 L14,12 C14,6.486 18.484,2 24,2 C29.514,2 34,6.486 34,12 L34,18 L9,18 L9,18 C7.34314575,18 6,19.3431458 6,21 Z" />
  </g>
</symbol><symbol viewBox="0 0 48 48" id="icon-profile">
  <defs>
    <path id="icon-profile_a" d="M46,23 C46,35.704 35.702,46 23,46 C10.296,46 0,35.704 0,23 C0,10.3 10.296,0 23,0 C35.702,0 46,10.3 46,23 L46,23 Z" />
  </defs>
  <g fill="none" fill-rule="evenodd" transform="translate(-384 -480)">
    <g transform="translate(385 481)">
      <mask id="icon-profile_b" fill="white">
        <use xlink:href="#icon-profile_a" />
      </mask>
      <use fill="#CEBEF7" xlink:href="#icon-profile_a" />
      <path fill="#855CEA" d="M23,27 C17.4771525,27 13,22.2989899 13,16.5 C13,10.7010101 17.4771525,6 23,6 C28.5228475,6 33,10.7010101 33,16.5 C33,22.2989899 28.5228475,27 23,27 Z M23,65 C13.0588745,65 5,56.9411255 5,47 C5,37.0588745 13.0588745,29 23,29 C32.9411255,29 41,37.0588745 41,47 C41,56.9411255 32.9411255,65 23,65 Z" mask="url(#icon-profile_b)" />
    </g>
  </g>
</symbol><symbol viewBox="0 0 48 48" id="icon-consumption">
  <g fill="none" fill-rule="evenodd" transform="translate(-480 -96)">
    <g transform="translate(481 97)">
      <path fill="#FFE2A1" d="M23,46 C10.2974508,46 0,35.7025492 0,23 C0,10.2974508 10.2974508,0 23,0 C35.7025492,0 46,10.2974508 46,23 C46,35.7025492 35.7025492,46 23,46 Z M42,23 L38,23 C37.4477153,23 37,23.4477153 37,24 C37,24.5522847 37.4477153,25 38,25 L42,25 C42.5522847,25 43,24.5522847 43,24 C43,23.4477153 42.5522847,23 42,23 Z M40.1703157,14.806438 L36.4743157,16.336438 C35.9640256,16.5476782 35.7215978,17.1325941 35.932838,17.6428843 C36.1440782,18.1531744 36.7289941,18.3956022 37.2392843,18.184362 L40.9352843,16.654362 C41.4455744,16.4431218 41.6880022,15.8582059 41.476762,15.3479157 C41.2655218,14.8376256 40.6806059,14.5951978 40.1703157,14.806438 Z M29.345638,5.06291573 L27.815638,8.75891573 C27.6043978,9.26920585 27.8468256,9.85412177 28.3571157,10.065362 C28.8674059,10.2766022 29.4523218,10.0341744 29.663562,9.52388427 L31.193562,5.82788427 C31.4048022,5.31759415 31.1623744,4.73267823 30.6520843,4.521438 C30.1417941,4.31019777 29.5568782,4.55262561 29.345638,5.06291573 Z M22,4 L22,8 C22,8.55228475 22.4477153,9 23,9 C23.5522847,9 24,8.55228475 24,8 L24,4 C24,3.44771525 23.5522847,3 23,3 C22.4477153,3 22,3.44771525 22,4 Z M14.806438,5.82788427 L16.336438,9.52388427 C16.5476782,10.0341744 17.1325941,10.2766022 17.6428843,10.065362 C18.1531744,9.85412177 18.3956022,9.26920585 18.184362,8.75891573 L16.654362,5.06291573 C16.4431218,4.55262561 15.8582059,4.31019777 15.3479157,4.521438 C14.8376256,4.73267823 14.5951978,5.31759415 14.806438,5.82788427 Z M8.85829378,10.2685059 L11.6822938,13.1005059 C12.0722653,13.4915822 12.7054297,13.4924778 13.0965059,13.1025062 C13.4875822,12.7125347 13.4884778,12.0793703 13.0985062,11.6882941 L10.2745062,8.85629408 C9.88453469,8.46521781 9.25137034,8.46432224 8.86029408,8.85429378 C8.46921781,9.24426531 8.46832224,9.87742966 8.85829378,10.2685059 Z M5.06453896,16.6542888 L8.75853896,18.1842888 C9.26878866,18.3956267 9.85375095,18.1533107 10.0650888,17.643061 C10.2764267,17.1328113 10.0341107,16.547849 9.52386104,16.3365112 L5.82986104,14.8065112 C5.31961134,14.5951733 4.73464905,14.8374893 4.52331119,15.347739 C4.31197334,15.8579887 4.55428926,16.442951 5.06453896,16.6542888 Z M4,25 L8,25 C8.55228475,25 9,24.5522847 9,24 C9,23.4477153 8.55228475,23 8,23 L4,23 C3.44771525,23 3,23.4477153 3,24 C3,24.5522847 3.44771525,25 4,25 Z" />
      <rect width="4" height="8" x="21" y="32" stroke="#FF9125" stroke-width="2" stroke-linecap="round" stroke-linejoin="round" />
      <rect width="4" height="8" x="29" y="32" stroke="#FF9125" stroke-width="2" stroke-linecap="round" stroke-linejoin="round" />
      <rect width="4" height="8" x="13" y="32" stroke="#FF9125" stroke-width="2" stroke-linecap="round" stroke-linejoin="round" />
      <path stroke="#FF9125" stroke-width="2" d="M26 23C26 24.656 24.656 26 23 26 21.344 26 20 24.656 20 23 20 21.344 21.344 20 23 20 24.656 20 26 21.344 26 23L26 23zM25.121 20.879L35.021 10.981" stroke-linecap="round" stroke-linejoin="round" />
    </g>
  </g>
</symbol><symbol viewBox="0 0 48 48" id="icon-contract">
  <g fill="none" fill-rule="evenodd" transform="translate(-192 -192)">
    <g transform="translate(193 193)">
      <path fill="#A9CBF9" d="M2.00174332,42 C0.89621101,42 0,41.1033397 0,40.0025078 L0,1.99749218 C0,0.894307712 0.889673948,0 1.991155,0 L22,0 L32,10 L32,42 L2.00174332,42 Z" />
      <path fill="#297EF2" d="M22,0 L32,10 L23.999615,10 C22.8874333,10 22,9.10474188 22,8.00038502 L22,0 Z M25.9313108,45.4521969 C24.8646773,45.7569493 24.2452393,45.1456626 24.5518031,44.0726892 L26,39.004 L39.5906483,25.4115399 C40.3701163,24.6319679 41.6352535,24.6332535 42.421425,25.419425 L44.582575,27.580575 C45.3665018,28.3645018 45.3669649,29.6351197 44.5906483,30.4115399 L31,44.004 L25.9313108,45.4521969 Z M15,37 L25,37 L25,39 L15,39 L15,37 Z" />
    </g>
  </g>
</symbol><symbol viewBox="0 0 48 48" id="icon-energybreakdown">
  <g fill="none" fill-rule="evenodd">
    <path fill="#855CEA" d="M46,46 L46,17 C46,16.448 45.55,16 45,16 L39,16 C38.448,16 38,16.448 38,17 L38,46 L34,46 L34,31 C34,30.448 33.55,30 33,30 L27,30 C26.448,30 26,30.448 26,31 L26,46 L22,46 L22,27 C22,26.448 21.55,26 21,26 L15,26 C14.448,26 14,26.448 14,27 L14,46 L10,46 L10,37 C10,36.448 9.55,36 9,36 L3,36 C2.448,36 2,36.448 2,37 L2,46 L1,46 C0.448,46 0,46.448 0,47 C0,47.55 0.448,48 1,48 L47,48 C47.55,48 48,47.55 48,47 C48,46.448 47.55,46 47,46 L46,46 Z" />
    <path fill="#CEBEF7" d="M6,26 C7.652,26 9,24.654 9,23 C9,22.636 8.924,22.288 8.804,21.964 L16.476,15.57 C16.926,15.836 17.442,16 18,16 C18.958,16 19.802,15.54 20.352,14.838 L27.006,17.054 C27.036,18.682 28.364,20 30,20 C31.652,20 33,18.654 33,17 C33,16.456 32.844,15.956 32.59,15.512 L40.924,5.792 C41.258,5.92 41.62,6 42,6 C43.652,6 45,4.654 45,3 C45,1.344 43.652,0 42,0 C40.346,0 39,1.344 39,3 C39,3.542 39.156,4.046 39.408,4.486 L31.076,14.208 C30.74,14.08 30.378,14 30,14 C29.042,14 28.198,14.458 27.646,15.16 L20.994,12.944 C20.962,11.318 19.634,10 18,10 C16.346,10 15,11.344 15,13 C15,13.364 15.074,13.712 15.196,14.036 L7.522,20.428 C7.074,20.164 6.556,20 6,20 C4.346,20 3,21.344 3,23 C3,24.654 4.346,26 6,26" />
  </g>
</symbol><symbol viewBox="0 0 48 48" id="icon-home">
  <g fill="none" fill-rule="evenodd" transform="translate(-480 -480)">
    <g transform="translate(479 480)">
      <path fill="#FF9126" d="M7.001,21 L7.001,47.0002 L43.001,47.0002 L43.001,21 L47.2929639,25.2928225 L47.2928932,25.2928932 C47.6833785,25.6834566 48.3165434,25.6835199 48.7071068,25.2930346 C48.7071303,25.2930111 48.7071539,25.2929875 48.7071775,25.2929639 L48.7928932,25.2071068 L48.7928595,25.2070731 C49.1833707,24.816562 49.1833858,24.183423 48.7928932,23.7928932 L39.001,14 L39.001,4 L39.001,4 C39.001,3.44771525 38.5532847,3 38.001,3 L33,3 L33,3 C32.4477153,3 32,3.44771525 32,4 L32,7 L25.7071068,0.707106781 L25.7071068,0.707106781 C25.3165825,0.316582489 24.6834175,0.316582489 24.2928932,0.707106781 L1.20710678,23.7928932 L1.2068712,23.7926576 C0.816346905,24.1831819 0.816346905,24.8163469 1.2068712,25.2068712 C1.20694974,25.2069497 1.20702829,25.2070283 1.20710686,25.2071068 L1.29365763,25.2931289 L1.29389322,25.2928931 C1.68445558,25.6831953 2.31743884,25.6830898 2.70787112,25.2926576 L7.001,21 Z" />
      <rect width="8" height="14" x="15" y="33" fill="#FFE2A1" />
    </g>
  </g>
</symbol><symbol viewBox="0 0 48 48" id="icon-files-pen">
  <g fill="none" fill-rule="evenodd" transform="translate(-192 -192)">
    <g transform="translate(193 193)">
      <path fill="#A9CBF9" d="M2.00174332,42 C0.89621101,42 0,41.1033397 0,40.0025078 L0,1.99749218 C0,0.894307712 0.889673948,0 1.991155,0 L22,0 L32,10 L32,42 L2.00174332,42 Z" />
      <path fill="#297EF2" d="M22,0 L32,10 L23.999615,10 C22.8874333,10 22,9.10474188 22,8.00038502 L22,0 Z M25.9313108,45.4521969 C24.8646773,45.7569493 24.2452393,45.1456626 24.5518031,44.0726892 L26,39.004 L39.5906483,25.4115399 C40.3701163,24.6319679 41.6352535,24.6332535 42.421425,25.419425 L44.582575,27.580575 C45.3665018,28.3645018 45.3669649,29.6351197 44.5906483,30.4115399 L31,44.004 L25.9313108,45.4521969 Z M15,37 L25,37 L25,39 L15,39 L15,37 Z" />
    </g>
  </g>
</symbol><symbol viewBox="0 0 48 48" id="icon-family">
  <defs>
    <path id="icon-family_a" d="M46,23 C46,35.704 35.702,46 23,46 C10.296,46 0,35.704 0,23 C0,10.3 10.296,0 23,0 C35.702,0 46,10.3 46,23 L46,23 Z" />
  </defs>
  <g fill="none" fill-rule="evenodd" transform="translate(-96 -576)">
    <g transform="translate(97 577)">
      <mask id="icon-family_b" fill="white">
        <use xlink:href="#icon-family_a" />
      </mask>
      <use fill="#C2F0D1" xlink:href="#icon-family_a" />
      <path fill="#35CE68" d="M9,25 C12.3137085,25 15,27.6862915 15,31 L15,47 L3,47 L3,31 L3,31 C3,27.6862915 5.6862915,25 9,25 Z M9,23 C5.6862915,23 3,20.3137085 3,17 C3,13.6862915 5.6862915,11 9,11 C12.3137085,11 15,13.6862915 15,17 C15,20.3137085 12.3137085,23 9,23 Z M37,23 C33.6862915,23 31,20.3137085 31,17 C31,13.6862915 33.6862915,11 37,11 C40.3137085,11 43,13.6862915 43,17 C43,20.3137085 40.3137085,23 37,23 Z M23,31 C19.6862915,31 17,28.3137085 17,25 C17,21.6862915 19.6862915,19 23,19 C26.3137085,19 29,21.6862915 29,25 C29,28.3137085 26.3137085,31 23,31 Z M37,25 C40.3137085,25 43,27.6862915 43,31 L43,47 L31,47 L31,31 L31,31 C31,27.6862915 33.6862915,25 37,25 Z M23,33 C26.3137085,33 29,35.6862915 29,39 L29,47 L17,47 L17,39 C17,35.6862915 19.6862915,33 23,33 Z" mask="url(#icon-family_b)" />
    </g>
  </g>
</symbol><symbol viewBox="0 0 48 48" id="icon-sinister">
  <g fill="none" fill-rule="evenodd" transform="translate(-192 -576)">
    <g transform="translate(193 577)">
      <path fill="#FCBFBF" d="M45.8126826,44.3485 L23.8946826,0.5085 C23.5546826,-0.1695 22.4446826,-0.1695 22.1066826,0.5085 L0.106682589,44.5085 C-0.049317411,44.8185 -0.033317411,45.1865 0.148682589,45.4805 C0.330682589,45.7765 0.652682589,45.9565 1.00068259,45.9565 L45.0006826,45.9565 L45.0206826,45.9565 C45.5706826,45.9565 46.0206826,45.5085 46.0206826,44.9565 C46.0206826,44.7265 45.9426826,44.5165 45.8126826,44.3485 L45.8126826,44.3485 Z" />
      <path fill="#F52D2D" d="M23.0006826,40.1725 C21.9426826,40.1725 21.0866826,39.3165 21.0866826,38.2605 C21.0866826,37.2065 21.9426826,36.3465 23.0006826,36.3465 C24.0546826,36.3465 24.9126826,37.2065 24.9126826,38.2605 C24.9126826,39.3165 24.0546826,40.1725 23.0006826,40.1725 Z M22.0006826,16.2605 C22.0006826,15.7085 22.4486826,15.2605 23.0006826,15.2605 C23.5506826,15.2605 24.0006826,15.7085 24.0006826,16.2605 L24.0006826,31.5645 C24.0006826,32.1165 23.5506826,32.5645 23.0006826,32.5645 C22.4486826,32.5645 22.0006826,32.1165 22.0006826,31.5645 L22.0006826,16.2605 Z" />
    </g>
  </g>
</symbol></defs><use id="icon-cozy-usage" xlink:href="#icon-cozy" class="sprite-symbol-usage" /><use id="icon-shield-usage" xlink:href="#icon-shield" class="sprite-symbol-usage" /><use id="icon-fallback-usage" xlink:href="#icon-fallback" class="sprite-symbol-usage" /><use id="icon-settings-usage" xlink:href="#icon-settings" class="sprite-symbol-usage" /><use id="icon-accounts-usage" xlink:href="#icon-accounts" class="sprite-symbol-usage" /><use id="icon-apps-usage" xlink:href="#icon-apps" class="sprite-symbol-usage" /><use id="icon-bank-accounts-usage" xlink:href="#icon-bank-accounts" class="sprite-symbol-usage" /><use id="icon-bank-groups-usage" xlink:href="#icon-bank-groups" class="sprite-symbol-usage" /><use id="icon-bill-usage" xlink:href="#icon-bill" class="sprite-symbol-usage" /><use id="icon-files-usage" xlink:href="#icon-files" class="sprite-symbol-usage" /><use id="icon-konnectors-usage" xlink:href="#icon-konnectors" class="sprite-symbol-usage" /><use id="icon-konnectors-result-usage" xlink:href="#icon-konnectors-result" class="sprite-symbol-usage" /><use id="icon-photos-album-usage" xlink:href="#icon-photos-album" class="sprite-symbol-usage" /><use id="icon-triggers-usage" xlink:href="#icon-triggers" class="sprite-symbol-usage" /><use id="icon-permissions-usage" xlink:href="#icon-permissions" class="sprite-symbol-usage" /><use id="icon-profile-usage" xlink:href="#icon-profile" class="sprite-symbol-usage" /><use id="icon-consumption-usage" xlink:href="#icon-consumption" class="sprite-symbol-usage" /><use id="icon-contract-usage" xlink:href="#icon-contract" class="sprite-symbol-usage" /><use id="icon-energybreakdown-usage" xlink:href="#icon-energybreakdown" class="sprite-symbol-usage" /><use id="icon-home-usage" xlink:href="#icon-home" class="sprite-symbol-usage" /><use id="icon-files-pen-usage" xlink:href="#icon-files-pen" class="sprite-symbol-usage" /><use id="icon-family-usage" xlink:href="#icon-family" class="sprite-symbol-usage" /><use id="icon-sinister-usage" xlink:href="#icon-sinister" class="sprite-symbol-usage" /></svg>