<svg xmlns="http://www.w3.org/2000/svg" width="24" height="24" viewBox="0 0 24 24">
  <g fill="#A4C639">
    <g transform="translate(-1024.000000, -645.000000)">
      <g transform="translate(252.000000, 80.000000)">
        <g transform="translate(0.000000, 441.000000)">
          <g transform="translate(608.000000, 0.000000)">
            <g transform="translate(163.000000, 124.000000)">
              <path d="M4.3,7.8c-0.8,0-1.5,0.7-1.5,1.5v6.2c0,0.8,0.7,1.5,1.5,1.5s1.5-0.7,1.5-1.5V9.3
                C5.8,8.4,5.1,7.8,4.3,7.8L4.3,7.8z M12,19.2v3.3c0,0.8-0.7,1.5-1.5,1.5C9.6,24,9,23.3,9,22.5v-3.3H7.9c-0.9,0-1.6-0.7-1.6-1.6
                V8h13.2v9.6c0,0.9-0.7,1.6-1.6,1.6h-1.1v3.3c0,0.8-0.7,1.5-1.5,1.5c-0.8,0-1.5-0.7-1.5-1.5v-3.3H12z M21.6,7.8
                c0.8,0,1.5,0.7,1.5,1.5v6.2c0,0.8-0.7,1.5-1.5,1.5c-0.8,0-1.5-0.7-1.5-1.5V9.3C20.1,8.4,20.8,7.8,21.6,7.8z M8.8,0
                C8.9,0,9,0,9,0.1L10.1,2c0.9-0.4,1.8-0.6,2.9-0.6c1,0,2,0.2,2.9,0.6l1.1-1.9C16.9,0,17,0,17.1,0c0,0,0.1,0,0.1,0
                c0.1,0.1,0.1,0.2,0.1,0.3l-1,1.9c2,1,3.4,3,3.4,5.3H6.3c0-2.3,1.4-4.3,3.4-5.3l-1-1.9C8.6,0.2,8.6,0.1,8.7,0
                C8.8,0,8.8,0,8.8,0z M9.9,4C9.6,4,9.3,4.2,9.3,4.5c0,0.3,0.3,0.6,0.6,0.6c0.3,0,0.6-0.3,0.6-0.6C10.4,4.2,10.2,4,9.9,4z M16,4
                c-0.3,0-0.6,0.3-0.6,0.6c0,0.3,0.3,0.6,0.6,0.6c0.3,0,0.6-0.3,0.6-0.6C16.5,4.2,16.3,4,16,4z"/>
            </g>
          </g>
        </g>
      </g>
    </g>
  </g>
</svg>
