<svg xmlns="http://www.w3.org/2000/svg" width="24" height="24" viewBox="0 0 24 24">
  <g fill="#000000">
    <g transform="translate(-993.000000, -645.000000)">
      <g transform="translate(252.000000, 80.000000)">
        <g transform="translate(0.000000, 441.000000)">
          <g transform="translate(608.000000, 0.000000)">
            <g transform="translate(131.000000, 124.000000)">
              <path d="M20.6,12.8c0,3.6,3.2,4.8,3.2,4.9c0,0.1-0.5,1.7-1.7,3.4c-1,1.5-2,2.9-3.7,2.9c-1.6,0-2.1-1-4-1
                c-1.8,0-2.4,0.9-3.9,1c-1.6,0.1-2.8-1.6-3.8-3c-2.1-3-3.6-8.4-1.5-12.1c1.1-1.8,2.9-3,5-3c1.6,0,3,1,4,1
                c0.9,0,2.7-1.3,4.6-1.1c0.8,0,3,0.3,4.4,2.4C23.1,8.3,20.5,9.7,20.6,12.8 M17.6,3.8c0.8-1,1.4-2.4,1.2-3.8
                c-1.2,0-2.7,0.8-3.5,1.8c-0.8,0.9-1.5,2.3-1.3,3.7C15.3,5.6,16.7,4.8,17.6,3.8"/>
            </g>
          </g>
        </g>
      </g>
    </g>
  </g>
</svg>
