<svg xmlns="http://www.w3.org/2000/svg" viewBox="0 0 55 60"><defs><style>.cls-1{fill:#bbd9fd;}.cls-2{fill:#288afc;}.cls-3{fill:#3281ee;}.cls-4{fill:#b7f6f7;}.cls-5{fill:#2bd1d4;}</style></defs><title>Artboard 15</title><g id="Layer_1" data-name="Layer 1"><path class="cls-1" d="M41.93,10c-2.45-1.56-4.84-3.23-7.38-4.64-2.16-1.21-2.91-3-5.4-3.28a7.45,7.45,0,0,0-1.49,0,7.54,7.54,0,0,0-1.5,0c-2.49.3-3.24,2.07-5.4,3.28C18.23,6.73,15.83,8.4,13.38,10c-3.19,2-8.4,3.82-8.87,8.19l-.44,1.29c0,12.45.06,10.78.33,11.71.89,3,1.73,4,4.81,4.18,1.39.14,36.47.3,37.16.2,3.38-.48,4.14-2.85,4.15-5.77,0-.27.25,1.18.41-10.89l-.13-.72C50.33,13.78,45.12,12,41.93,10Z"/><path class="cls-2" d="M41.68,36.55c-9.89,0-31.58-.14-32.57-.24-3.69-.26-4.73-1.71-5.66-4.88a1.07,1.07,0,0,0-.06-.17c-.29-.68-.33-.78-.31-11.82v-.16l.46-1.35C4,14,7.76,12,10.76,10.32c.75-.41,1.46-.8,2.09-1.2L15.1,7.66c1.67-1.08,3.4-2.21,5.18-3.21a10.52,10.52,0,0,0,1.83-1.37,7,7,0,0,1,3.93-2,7.93,7.93,0,0,1,1.62,0,8.62,8.62,0,0,1,1.61,0,6.92,6.92,0,0,1,3.93,2A10.91,10.91,0,0,0,35,4.45c1.78,1,3.51,2.12,5.17,3.21l2.27,1.46h0c.62.4,1.33.79,2.09,1.2,3,1.66,6.8,3.73,7.22,7.73l.14.73v.1c-.11,8.05-.21,10.28-.41,11.05,0,2.58-.63,6-5,6.59C46.33,36.54,44.47,36.55,41.68,36.55ZM5.07,19.61c0,9,0,10.57.15,10.89a3.66,3.66,0,0,1,.13.37c.81,2.77,1.4,3.29,3.93,3.47,1.29.12,35.49.32,37,.21,2.33-.33,3.25-1.68,3.26-4.8l0-.45.06-.07c.07-.57.2-2.66.3-10.28l-.12-.62c-.32-3-3.32-4.68-6.22-6.27-.78-.43-1.52-.84-2.2-1.26h0L39.12,9.32c-1.64-1.07-3.33-2.18-5-3.14a12.47,12.47,0,0,1-2.17-1.6A5,5,0,0,0,29,3a6.15,6.15,0,0,0-1.29,0h-.17a6.15,6.15,0,0,0-1.29,0,5,5,0,0,0-2.87,1.56,12.1,12.1,0,0,1-2.17,1.6c-1.72,1-3.41,2.07-5,3.14L13.91,10.8c-.68.42-1.42.83-2.2,1.26-2.9,1.59-5.9,3.23-6.21,6.2l0,.21Zm44.55,9.77Zm.22-.37a.13.13,0,0,0-.06.07Z"/><path class="cls-1" d="M54.26,43.56a75,75,0,0,0-.61-10.16c-.25-1.86-.17-5.14-2.53-5.77s-5.48,0-8,.05c-4.11.15-6.26-.1-10.38-.12l-5.21,0V19c-1.74,0-3.48,0-5.21,0-4.12,0-6.27.26-10.38.12C9.36,19,6,24.45,2.8,27.63,1.07,29.34,1.28,31.54,1,33.4A74.84,74.84,0,0,0,.74,43.56c0,2.92-.15,5.92,0,8.83a7.62,7.62,0,0,0,.77,3.33C2.75,59.43,8.77,58.92,12,59c5.82.09,9.66,0,15.48-.12s9.66.21,15.48.12c3.25,0,9.27.46,10.5-3.25a7.62,7.62,0,0,0,.77-3.33C54.41,49.48,54.24,46.48,54.26,43.56Z"/><path class="cls-3" d="M23.39,52.29a.36.36,0,0,1,.37-.43l8.63-.06a.36.36,0,0,1,.37.43s-.34,4.32-4.66,4.35S23.39,52.29,23.39,52.29Z"/><path class="cls-3" d="M21.1,45.07a.47.47,0,0,0-.4-.33l-2.34-.34-1.05-2.13a.52.52,0,0,0-.89,0L15.37,44.4,13,44.74a.49.49,0,0,0-.27.84l1.7,1.66L14,49.57a.51.51,0,0,0,.2.49.52.52,0,0,0,.29.09.59.59,0,0,0,.23,0L16.86,49,19,50.1a.5.5,0,0,0,.72-.53l-.4-2.33L21,45.58A.5.5,0,0,0,21.1,45.07Z"/><path class="cls-3" d="M42.38,45.07a.49.49,0,0,0-.4-.33l-2.35-.34-1.05-2.13a.52.52,0,0,0-.89,0l-1,2.13-2.34.34a.46.46,0,0,0-.4.33.5.5,0,0,0,.12.51l1.7,1.66-.4,2.33a.49.49,0,0,0,.2.49.5.5,0,0,0,.29.09.59.59,0,0,0,.23,0L38.14,49l2.1,1.11a.49.49,0,0,0,.52,0,.51.51,0,0,0,.2-.49l-.41-2.33,1.7-1.66A.49.49,0,0,0,42.38,45.07Z"/><path class="cls-2" d="M27.28,43.32c-.63,0-1.35,0-1.7,0a10.8,10.8,0,0,1-4.83-1.76l-1.38-.79c-.58-.31-1.86-.81-3.33-1.4-7.57-3-14.39-6-14.81-9.78l-.15-.77v-.11c.1-7.21,13.33-10.66,26.4-10.87,13.11.21,26.34,3.66,26.44,10.87v.11l-.16.84c-.41,3.72-7.23,6.72-14.8,9.71-1.47.59-2.74,1.09-3.33,1.4l-1.38.79a10.8,10.8,0,0,1-4.83,1.76c-.39,0-1.25,0-1.92,0ZM3.06,28.6l.12.64c.34,3,9.29,6.54,13.59,8.24,1.59.63,2.85,1.13,3.54,1.5s1,.57,1.44.82a8.82,8.82,0,0,0,4.06,1.5c.2,0,.84,0,1.69,0h0c.85,0,1.49,0,1.69,0a8.82,8.82,0,0,0,4.06-1.5c.43-.25.89-.53,1.44-.82s2-.87,3.54-1.5c4.3-1.7,13.25-5.24,13.57-8.16l.14-.72c-.2-4.81-10.67-8.6-24.46-8.83C13.73,20,3.26,23.79,3.06,28.6Z"/><path class="cls-4" d="M19.85,38.86C22.19,40.12,23,41,25.71,41.29a25,25,0,0,0,3.24,0c2.7-.31,3.52-1.17,5.86-2.43C37.56,37.38,51.93,33,52.44,28.44l.47-1.36c0-13-.06-11.24-.35-12.22-1-3.15-1.88-4.13-5.22-4.36-1.51-.15-39.56-.32-40.31-.21-3.67.5-4.49,3-4.5,6,0,.28-.27-1.24-.45,11.37l.15.75C2.73,33,17.1,37.38,19.85,38.86Z"/><path class="cls-3" d="M45.09,18.79c-9.28-.07-14.48,0-23.76-.05a1.55,1.55,0,0,0,0,3.09c9.28,0,14.47,0,23.76.05A1.55,1.55,0,0,0,45.09,18.79Z"/><path class="cls-3" d="M45.09,28.49c-9.28-.07-14.48,0-23.76,0a1.55,1.55,0,0,0,0,3.09c9.28,0,14.47,0,23.76,0A1.55,1.55,0,0,0,45.09,28.49Z"/><rect class="cls-3" x="8.71" y="16.63" width="6.24" height="6.24" rx="2" ry="2"/><rect class="cls-3" x="8.71" y="26.45" width="6.24" height="6.24" rx="2" ry="2"/><path class="cls-5" d="M18.55,15.12a1,1,0,0,0-1.38,0l-4.44,4.44-1.37-1.37a1,1,0,0,0-1.37,0,1,1,0,0,0,0,1.38l2,2.06a1,1,0,0,0,.69.28,1,1,0,0,0,.69-.28l5.13-5.13A1,1,0,0,0,18.55,15.12Z"/><path class="cls-5" d="M18.55,24.94a1,1,0,0,0-1.38,0l-4.44,4.44L11.36,28A1,1,0,0,0,10,28a1,1,0,0,0,0,1.38l2,2.05a1,1,0,0,0,.69.29.94.94,0,0,0,.69-.29l5.13-5.12A1,1,0,0,0,18.55,24.94Z"/></g></svg>