<svg viewBox="0 0 56 56" xmlns="http://www.w3.org/2000/svg" fill-rule="evenodd" clip-rule="evenodd" stroke-linejoin="round" stroke-miterlimit="1.414"><circle cx="28" cy="28" r="28" fill="#297ef1"/><path d="M35.684 39.083H20.316c-4.77 0-8.65-3.915-8.65-8.728a8.721 8.721 0 0 1 2.468-6.104 8.571 8.571 0 0 1 5.153-2.562 8.705 8.705 0 0 1 2.539-5.2A8.562 8.562 0 0 1 27.875 14a8.563 8.563 0 0 1 6.049 2.488 8.71 8.71 0 0 1 2.537 5.174c4.406.398 7.872 4.145 7.872 8.693 0 4.813-3.881 8.728-8.65 8.728h.001zm-.032-1.75h.065c3.787 0 6.866-3.118 6.866-6.95 0-3.83-3.08-6.948-6.866-6.948h-.068a.92.92 0 0 1-.91-.9c-.086-3.742-3.165-6.785-6.864-6.785-3.7 0-6.78 3.044-6.864 6.787a.92.92 0 0 1-.89.9c-3.697.086-6.704 3.202-6.704 6.947 0 3.832 3.08 6.95 6.866 6.95h.055l.022-.002.059.001h15.233zm-3.13-7.453v-.001c.147.092.19.284.093.426a.33.33 0 0 1-.444.09 1.736 1.736 0 0 1-.362-.3 5.818 5.818 0 0 1-3.816 1.405 5.816 5.816 0 0 1-3.807-1.399 1.736 1.736 0 0 1-.356.295.331.331 0 0 1-.444-.09.3.3 0 0 1 .093-.427c.546-.34.572-.97.572-.995a.32.32 0 0 1 .329-.3.317.317 0 0 1 .313.313c0 .022-.01.322-.16.673 1.943 1.754 4.991 1.752 6.93-.01-.146-.347-.155-.641-.156-.664a.316.316 0 0 1 .314-.313h.001a.317.317 0 0 1 .326.302c.002.028.028.654.573.995h.001z" fill="#fff"/></svg>