<svg xmlns="http://www.w3.org/2000/svg" width="16" height="16" viewBox="0 0 16 16">
  <g fill="none" fill-rule="evenodd" transform="translate(-96 -160)">
    <path fill="#297EF2" d="M100,174 C97.790861,174 96,172.209139 96,170 C96,167.790861 97.790861,166 100,166 C100,163.790861 101.790861,162 104,162 C106.209139,162 108,163.790861 108,166 C110.209139,166 112,167.790861 112,170 C112,172.209139 110.209139,174 108,174 L100,174 Z M101,169 C101,169 101,172 104,172 C107,172 107,169 107,169 L101,169 Z"/>
  </g>
</svg>
