<svg xmlns="http://www.w3.org/2000/svg" width="17" height="17"><path fill-rule="evenodd" d="M8.459.378C4.032.378.452 3.984.452 8.444a8.06 8.06 0 0 0 5.475 7.652c.398.08.544-.173.544-.387 0-.187-.014-.828-.014-1.496-2.227.481-2.69-.961-2.69-.961-.359-.935-.889-1.175-.889-1.175-.729-.494.053-.494.053-.494.809.053 1.233.828 1.233.828.716 1.228 1.87.88 2.333.667.066-.52.279-.881.504-1.081-1.777-.187-3.645-.882-3.645-3.98 0-.882.317-1.603.821-2.163-.08-.2-.358-1.029.08-2.137 0 0 .676-.214 2.2.828a7.697 7.697 0 0 1 2.002-.267 7.7 7.7 0 0 1 2.002.267c1.524-1.042 2.2-.828 2.2-.828.438 1.108.16 1.936.08 2.137.517.56.822 1.281.822 2.163 0 3.098-1.87 3.78-3.66 3.98.293.253.544.734.544 1.495 0 1.082-.013 1.95-.013 2.217 0 .214.146.468.544.387a8.06 8.06 0 0 0 5.474-7.652C16.465 3.984 12.873.378 8.46.378Z" clip-rule="evenodd"/></svg>