<svg version="1.1" id="Layer_1" xmlns="http://www.w3.org/2000/svg" xmlns:xlink="http://www.w3.org/1999/xlink" x="0px" y="0px"
	 viewBox="0 0 24 24" style="enable-background:new 0 0 24 24;" xml:space="preserve">
<title>icon-cloud-out-24</title>
<g id="main">
	<g id="_x32_4px" transform="translate(-32.000000, -88.000000)">
		<path id="icon-cloud-out" class="st0" d="M41.2,99.1C41.2,99.1,41.2,99.2,41.2,99.1l-1.8,1.8c-0.2,0.2-0.2,0.6,0,0.8
			s0.6,0.2,0.8,0L41,101v4.5c0,0.3,0.2,0.6,0.5,0.6s0.5-0.3,0.5-0.6v-4.5l0.9,0.9c0.2,0.2,0.6,0.2,0.8,0s0.2-0.6,0-0.8L42,99.2
			c-0.1-0.1-0.3-0.2-0.4-0.2c0,0,0,0,0,0C41.4,99,41.3,99,41.2,99.1z M47,104l-0.8-0.8c-0.2-0.2-0.6-0.2-0.8,0s-0.2,0.6,0,0.8
			l1.7,1.8c0,0,0.1,0.1,0.1,0.1c0.1,0,0.1,0.1,0.2,0.1c0,0,0,0,0,0c0.2,0,0.3-0.1,0.4-0.2l1.7-1.8c0.2-0.2,0.2-0.6,0-0.8
			s-0.6-0.2-0.8,0l-0.8,0.9v-4.5c0-0.3-0.2-0.6-0.5-0.6S47,99.3,47,99.6V104z M38,109c-3.3,0-6-2.7-6-6c0-3.2,2.4-5.7,5.5-6
			c0.2-3.4,3.1-6,6.5-6s6.2,2.7,6.5,6c3.1,0.2,5.5,2.8,5.5,6c0,3.3-2.7,6-6,6H38z"/>
	</g>
</g>
</svg>
