<svg xmlns="http://www.w3.org/2000/svg" x="0px" y="0px" viewBox="0 0 24 24">
  <g id="_x32_4px" transform="translate(-96.000000, -88.000000)">
  	<path id="icon-cloud-in-cozy" class="st0" d="M102,109c-3.3,0-6-2.7-6-6c0-3.2,2.4-5.7,5.5-6c0.2-3.4,3.1-6,6.5-6s6.2,2.7,6.5,6
  		c3.1,0.2,5.5,2.8,5.5,6c0,3.3-2.7,6-6,6H102z M105.5,104.5h5c0.6,0,1-0.4,1-1V101c0-0.6-0.4-1-1-1v0c0-1.9-1.6-3.5-3.5-3.5h2
  		c-1.9,0-3.5,1.6-3.5,3.5v0c-0.5,0-1,0.4-1,1v2.5C104.5,104.1,104.9,104.5,105.5,104.5z M106.5,100v-1c0,0,0-1.5,1.5-1.5
  		s1.5,1.5,1.5,1.5v1H106.5z M107.5,102c0-0.3,0.2-0.5,0.5-0.5c0.3,0,0.5,0.2,0.5,0.5v0.5c0,0.3-0.2,0.5-0.5,0.5
  		c-0.3,0-0.5-0.2-0.5-0.5V102z"/>
  </g>
</svg>
