<svg width="32" height="32" viewBox="0 0 32 32" fill="none" xmlns="http://www.w3.org/2000/svg">
<rect width="32" height="32" rx="10.5677" fill="url(#paint0_linear_12592_90)"/>
<g filter="url(#filter0_d_12592_90)">
<path fill-rule="evenodd" clip-rule="evenodd" d="M27.9458 12.3271C28.3614 13.5115 27.6083 14.7461 26.435 14.9749V23.1121C26.435 24.9473 24.9473 26.435 23.1121 26.435H9.03424C7.19905 26.435 5.71134 24.9473 5.71134 23.1121V14.9728C4.54424 14.7384 3.7971 13.5079 4.2114 12.3271L6.05919 7.06094C6.34284 6.25252 7.10614 5.71143 7.96288 5.71143H8.8172H11.0424H21.1149H22.8505H24.1943C25.0511 5.71143 25.8144 6.25252 26.098 7.06094L27.9458 12.3271ZM19.8493 13.2381C19.5807 13.5931 19.1873 13.7705 18.6692 13.7705C18.2855 13.7705 17.9593 13.6218 17.6906 13.3244C17.422 13.027 17.2877 12.6768 17.2877 12.2738V8.01398H19.5327L20.1659 12.0436C20.2235 12.4849 20.118 12.8831 19.8493 13.2381ZM14.5677 13.3244C14.2894 13.6218 13.9297 13.7705 13.4883 13.7705C13.047 13.7705 12.6872 13.5979 12.409 13.2525C12.1307 12.9071 12.03 12.5041 12.1067 12.0436L12.74 8.01398H14.985V12.2738C14.985 12.6768 14.8459 13.027 14.5677 13.3244ZM9.27164 13.3964C9.01259 13.6458 8.71037 13.7705 8.36498 13.7705C7.80851 13.7705 7.41035 13.5499 7.17049 13.1085C6.93063 12.6672 6.86827 12.2547 6.9834 11.8709L8.13471 8.01398H10.3798L9.74655 12.4465C9.68899 12.8303 9.53068 13.1469 9.27164 13.3964ZM25.1166 13.1085C24.8671 13.5499 24.4642 13.7705 23.9077 13.7705C23.5623 13.7705 23.2601 13.6458 23.001 13.3964C22.742 13.1469 22.5837 12.8303 22.5261 12.4465L21.8929 8.01398H24.0804L25.2893 11.8709C25.4236 12.2547 25.366 12.6672 25.1166 13.1085Z" fill="white"/>
</g>
<defs>
<filter id="filter0_d_12592_90" x="2.9092" y="4.76203" width="26.3388" height="23.097" filterUnits="userSpaceOnUse" color-interpolation-filters="sRGB">
<feFlood flood-opacity="0" result="BackgroundImageFix"/>
<feColorMatrix in="SourceAlpha" type="matrix" values="0 0 0 0 0 0 0 0 0 0 0 0 0 0 0 0 0 0 127 0" result="hardAlpha"/>
<feOffset dy="0.23735"/>
<feGaussianBlur stdDeviation="0.593375"/>
<feComposite in2="hardAlpha" operator="out"/>
<feColorMatrix type="matrix" values="0 0 0 0 0 0 0 0 0 0 0 0 0 0 0 0 0 0 0.1 0"/>
<feBlend mode="normal" in2="BackgroundImageFix" result="effect1_dropShadow_12592_90"/>
<feBlend mode="normal" in="SourceGraphic" in2="effect1_dropShadow_12592_90" result="shape"/>
</filter>
<linearGradient id="paint0_linear_12592_90" x1="5.54806" y1="29.1273" x2="30.188" y2="1.95814" gradientUnits="userSpaceOnUse">
<stop offset="0.229502" stop-color="#3D74FE"/>
<stop offset="1" stop-color="#91CFFF"/>
</linearGradient>
</defs>
</svg>
