<?xml version="1.0" encoding="utf-8"?>
<!-- Generator: Adobe Illustrator 22.1.0, SVG Export Plug-In . SVG Version: 6.00 Build 0)  -->
<svg version="1.1" id="Layer_1" xmlns="http://www.w3.org/2000/svg" xmlns:xlink="http://www.w3.org/1999/xlink" x="0px" y="0px"
	 viewBox="0 0 179 106" style="enable-background:new 0 0 179 106;" xml:space="preserve">
<style type="text/css">
	.st0{fill:#0045A6;}
	.st1{fill:#297EF1;}
	.st2{fill:#68A4F2;}
	.st3{fill:#A2C5F2;}
	.st4{fill:#BDD4F2;}
	.st5{fill:#D8E3F2;}
	.st6{fill:#FFFFFF;}
</style>
<title>label-explain</title>
<desc>Created with Sketch.</desc>
<g id="label-graph" transform="translate(1.000000, 16.000000)">
	<path id="Rectangle-5-Copy" class="st0" d="M3-16h35.2c0.5,0,1,0.2,1.4,0.6l6,6c0.8,0.8,0.8,2,0,2.8l-6,6C39.2-0.2,38.7,0,38.2,0H3
		C1.3,0,0-1.3,0-3v-10C0-14.7,1.3-16,3-16z"/>
	<path id="Rectangle-5-Copy-7" class="st1" d="M3,2h59.2c0.5,0,1,0.2,1.4,0.6l6,6c0.8,0.8,0.8,2,0,2.8l-6,6
		c-0.4,0.4-0.9,0.6-1.4,0.6H3c-1.7,0-3-1.3-3-3V5C0,3.3,1.3,2,3,2z"/>
	<path id="Rectangle-5-Copy-8" class="st2" d="M3,20h83.2c0.5,0,1,0.2,1.4,0.6l6,6c0.8,0.8,0.8,2,0,2.8l-6,6
		c-0.4,0.4-0.9,0.6-1.4,0.6H3c-1.7,0-3-1.3-3-3V23C0,21.3,1.3,20,3,20z"/>
	<path id="Rectangle-5-Copy-9" class="st3" d="M3,38h107.2c0.5,0,1,0.2,1.4,0.6l6,6c0.8,0.8,0.8,2,0,2.8l-6,6
		c-0.4,0.4-0.9,0.6-1.4,0.6H3c-1.7,0-3-1.3-3-3V41C0,39.3,1.3,38,3,38z"/>
	<path id="Rectangle-5-Copy-10" class="st4" d="M3,56h131.2c0.5,0,1,0.2,1.4,0.6l6,6c0.8,0.8,0.8,2,0,2.8l-6,6
		c-0.4,0.4-0.9,0.6-1.4,0.6H3c-1.7,0-3-1.3-3-3V59C0,57.3,1.3,56,3,56z"/>
	<path id="Rectangle-5-Copy-11" class="st5" d="M3,74h155.2c0.5,0,1,0.2,1.4,0.6l6,6c0.8,0.8,0.8,2,0,2.8l-6,6
		c-0.4,0.4-0.9,0.6-1.4,0.6H3c-1.7,0-3-1.3-3-3V77C0,75.3,1.3,74,3,74z"/>
	<path id="C" class="st6" d="M16.4,30.8c0.1,0,0.2,0,0.2,0.1l0.7,0.7c-0.4,0.5-0.9,0.8-1.4,1.1s-1.2,0.4-2,0.4
		c-0.7,0-1.3-0.1-1.9-0.4c-0.6-0.2-1-0.6-1.4-1c-0.4-0.4-0.7-0.9-0.9-1.5S9.4,29,9.4,28.3c0-0.7,0.1-1.4,0.4-1.9s0.6-1.1,1-1.5
		c0.4-0.4,0.9-0.8,1.5-1c0.6-0.2,1.2-0.4,2-0.4c0.7,0,1.3,0.1,1.8,0.3s1,0.5,1.3,0.9l-0.6,0.8c0,0.1-0.1,0.1-0.1,0.1
		c-0.1,0-0.1,0.1-0.2,0.1c-0.1,0-0.2,0-0.3-0.1c-0.1-0.1-0.2-0.2-0.4-0.3c-0.2-0.1-0.4-0.2-0.6-0.3C14.9,25,14.6,25,14.2,25
		c-0.4,0-0.8,0.1-1.2,0.2c-0.4,0.2-0.7,0.4-1,0.7c-0.3,0.3-0.5,0.6-0.6,1c-0.1,0.4-0.2,0.9-0.2,1.4c0,0.5,0.1,1,0.2,1.4
		c0.1,0.4,0.4,0.8,0.6,1c0.3,0.3,0.6,0.5,0.9,0.6c0.3,0.1,0.7,0.2,1.1,0.2c0.2,0,0.5,0,0.6,0c0.2,0,0.4-0.1,0.5-0.1
		c0.2-0.1,0.3-0.1,0.5-0.2c0.1-0.1,0.3-0.2,0.4-0.3c0,0,0.1-0.1,0.1-0.1C16.3,30.8,16.4,30.8,16.4,30.8z"/>
	<path id="D" class="st6" d="M17.3,46.3c0,0.7-0.1,1.3-0.3,1.9c-0.2,0.6-0.6,1.1-1,1.5c-0.4,0.4-0.9,0.7-1.5,1S13.2,51,12.5,51H8.9
		v-9.4h3.6c0.7,0,1.4,0.1,1.9,0.3s1.1,0.6,1.5,1c0.4,0.4,0.7,0.9,1,1.5S17.3,45.6,17.3,46.3z M15.5,46.3c0-0.5-0.1-1-0.2-1.4
		c-0.1-0.4-0.3-0.8-0.6-1c-0.3-0.3-0.6-0.5-0.9-0.7C13.4,43.1,13,43,12.5,43h-1.8v6.6h1.8c0.5,0,0.9-0.1,1.2-0.2
		c0.4-0.2,0.7-0.4,0.9-0.7s0.5-0.6,0.6-1C15.4,47.3,15.5,46.8,15.5,46.3z"/>
	<polygon id="E" class="st6" points="15.9,59.6 15.9,61 11.7,61 11.7,63.6 15,63.6 15,64.9 11.7,64.9 11.7,67.6 15.9,67.6 15.9,69 
		9.9,69 9.9,59.6 	"/>
	<polygon id="F" class="st6" points="15.9,77.6 15.9,79 11.7,79 11.7,81.8 15.2,81.8 15.2,83.2 11.7,83.2 11.7,87 9.9,87 9.9,77.6 	
		"/>
	<path id="A" class="st6" d="M17.2-3h-1.4c-0.2,0-0.3,0-0.4-0.1c-0.1-0.1-0.2-0.2-0.2-0.3l-0.7-1.9h-3.9L10-3.4
		c0,0.1-0.1,0.2-0.2,0.3C9.7-3,9.5-3,9.4-3H8l3.7-9.4h1.8L17.2-3z M11.1-6.5h3L13-9.7c-0.1-0.1-0.1-0.3-0.2-0.5
		c-0.1-0.2-0.1-0.4-0.2-0.6c-0.1,0.2-0.1,0.4-0.2,0.6s-0.1,0.4-0.2,0.5L11.1-6.5z"/>
	<path id="B" class="st6" d="M9.9,15V5.6h3.2c0.6,0,1.1,0.1,1.6,0.2s0.8,0.3,1.1,0.5s0.5,0.5,0.6,0.8c0.1,0.3,0.2,0.7,0.2,1
		c0,0.2,0,0.4-0.1,0.6c-0.1,0.2-0.2,0.4-0.3,0.6c-0.1,0.2-0.3,0.3-0.5,0.5c-0.2,0.1-0.5,0.3-0.8,0.4c1.3,0.3,1.9,1,1.9,2.1
		c0,0.4-0.1,0.8-0.2,1.1c-0.2,0.3-0.4,0.6-0.7,0.9c-0.3,0.2-0.6,0.4-1.1,0.6C14.5,14.9,14,15,13.5,15H9.9z M11.7,10.9v2.8h1.8
		c0.3,0,0.6,0,0.8-0.1c0.2-0.1,0.4-0.2,0.5-0.3c0.1-0.1,0.2-0.3,0.3-0.5s0.1-0.4,0.1-0.6c0-0.2,0-0.4-0.1-0.5s-0.2-0.3-0.3-0.4
		S14.5,11,14.3,11s-0.5-0.1-0.8-0.1H11.7z M11.7,9.7h1.4c0.6,0,1-0.1,1.4-0.3c0.3-0.2,0.5-0.6,0.5-1c0-0.5-0.1-0.8-0.4-1
		C14.2,7.1,13.8,7,13.2,7h-1.5V9.7z"/>
</g>
</svg>
