<svg id="Layer_1" xmlns="http://www.w3.org/2000/svg" viewBox="0 0 240 75"><style>.st0{fill:#32363f}.st7{fill:#fff}</style><path id="D" class="st0" d="M239.2 38c0 5.2-.8 10-2.4 14.2s-3.8 7.8-6.6 10.7-6.3 5.2-10.2 6.8-8.4 2.4-13.2 2.4H182v-68h24.8c4.8 0 9.2.8 13.2 2.4s7.4 3.8 10.2 6.8c2.8 2.9 5.1 6.5 6.6 10.7s2.4 8.8 2.4 14zm-5 0c0-4.7-.7-9-2-12.7s-3.2-6.8-5.5-9.4c-2.4-2.6-5.3-4.5-8.6-5.9s-7.1-2-11.2-2H187v60h19.8c4.1 0 7.8-.7 11.2-2s6.2-3.3 8.6-5.9c2.4-2.6 4.2-5.7 5.5-9.4s2.1-7.9 2.1-12.7z"/><path id="Rectangle-5-Copy" d="M3 0h30.2c.5 0 .9.2 1.3.5L39 4.3c.8.7 1 2 .3 2.8l-.3.3-4.6 3.8c-.4.3-.8.5-1.3.5H3c-1.7 0-3-1.3-3-3V3c0-1.7 1.3-3 3-3z" fill="#0045a6"/><path id="Rectangle-5-Copy-7" d="M3 12.6h46.6c.5 0 1 .2 1.3.5l4.2 3.8c.8.7.9 2 .1 2.8l-.1.1-4.1 3.9c-.4.3-.8.5-1.3.5H3c-1.7 0-3-1.3-3-3v-5.6c0-1.7 1.3-3 3-3z" fill="#297ef1"/><path id="Rectangle-5-Copy-8" d="M3 25.1h62.8c.5 0 1 .2 1.4.5l4 3.8c.8.8.8 2 .1 2.8l-.1.1-4 3.8c-.4.4-.9.5-1.4.5H3c-1.7 0-3-1.3-3-3V28c0-1.5 1.3-2.9 3-2.9z" fill="#68a4f2"/><path id="Rectangle-5-Copy-9_2_" d="M3 38.5c-1.2 0-2.2 1-2.2 2.2v5.6c0 1.2 1 2.2 2.2 2.2h79c.3 0 .6-.1.9-.4l3.9-3.8c.5-.5.5-1.3 0-1.8l-3.9-3.8c-.2-.2-.5-.4-.9-.4H3v.2z" fill="#a2c5f2"/><path id="Rectangle-5-Copy-10" d="M3 50.3h95.1c.5 0 1 .2 1.4.6l3.8 3.8c.8.8.8 2 0 2.8l-3.8 3.8c-.4.4-.9.6-1.4.6H3c-1.7 0-3-1.3-3-3v-5.6c0-1.7 1.3-3 3-3z" fill="#bfd0e6"/><path id="Rectangle-5-Copy-11" d="M3 62.9h111.1c.5 0 1 .2 1.4.6l3.8 3.8c.8.8.8 2 0 2.8l-3.8 3.8c-.4.4-.9.6-1.4.6H3c-1.7 0-3-1.3-3-3v-5.6c0-1.7 1.3-3 3-3z" fill="#d8e3f2"/><path id="C" class="st7" d="M12.3 32.4c.1 0 .1 0 .2.1l.4.5c-.2.3-.5.5-.9.7s-.8.2-1.2.2-.8-.1-1.2-.2c-.3-.2-.6-.4-.8-.7l-.6-.9c-.1-.3-.2-.7-.2-1.2 0-.4.1-.8.2-1.2.1-.4.3-.7.6-.9.3-.3.6-.5.9-.6.4-.1.8-.2 1.2-.2s.8.1 1.1.2.6.3.8.5l-.4.5s0 .1-.1.1h-.1c-.1 0-.1 0-.2-.1-.1 0-.1-.1-.2-.2s-.2-.1-.4-.2c-.2 0-.3-.1-.6-.1s-.5 0-.8.1c-.2.1-.4.2-.6.4-.2.2-.3.4-.4.6-.1.2-.1.5-.1.8s0 .6.1.9c.1.2.2.5.4.6.2.2.3.3.6.4.2.1.4.1.7.1h.4c.1 0 .2 0 .3-.1s.2-.1.3-.1c.1-.1.2-.1.3-.2.2.3.2.3.3.2-.1.1 0 0 0 0z"/><path id="D_1_" class="st7" d="M13.3 43.5c0 .4-.1.8-.2 1.2-.1.4-.3.7-.6.9s-.6.5-.9.6c-.4.1-.8.2-1.2.2H8v-5.8h2.3c.4 0 .9.1 1.2.2.4.1.7.3.9.6s.5.6.6.9c.2.4.3.8.3 1.2zm-1.2 0c0-.3 0-.6-.1-.9-.1-.3-.2-.5-.4-.6-.2-.2-.4-.3-.6-.4s-.5-.1-.8-.1H9.1v4.1h1.2c.3 0 .5 0 .8-.1s.4-.2.6-.4c.2-.2.3-.4.4-.6v-1z"/><path id="A" class="st7" d="M13.8 8.7h-.9c-.1 0-.2 0-.2-.1s-.1-.1-.1-.2l-.4-1.2H9.7l-.5 1.3c0 .1-.1.1-.1.2H8l2.3-5.8h1.1l2.4 5.8zM9.9 6.5h1.9l-.7-1.9c0-.1-.1-.2-.1-.3 0-.1-.1-.2-.1-.4 0 .1-.1.3-.1.4s-.1.2-.1.3l-.8 1.9z"/><path id="B" class="st7" d="M9 21.3v-5.8h2c.4 0 .7 0 1 .1s.5.2.7.3.3.3.4.5c.1.2.1.4.1.6 0 .1 0 .3-.1.4s-.1.2-.2.3l-.3.3c-.1.1-.3.2-.5.2.8.2 1.2.6 1.2 1.3 0 .2 0 .5-.1.7s-.2.4-.4.5c-.2.2-.4.3-.7.4s-.6.1-.9.1H9v.1zm1.1-2.6v1.7h1.1c.2 0 .4 0 .5-.1s.2-.1.3-.2.1-.2.2-.3c0-.1.1-.2.1-.3 0-.1 0-.2-.1-.3 0-.1-.1-.2-.2-.3-.1-.1-.2-.1-.3-.2-.1 0-.3-.1-.5-.1l-1.1.1zm0-.7h.9c.4 0 .7-.1.9-.2s.3-.3.3-.6-.1-.5-.3-.6-.4-.2-.8-.2h-.9l-.1 1.6z"/><path id="E" class="st7" d="M12.7 53.2v.8h-2.6v1.7h2.1v.8h-2.1v1.6h2.6v.9H9v-5.8z"/><path id="F" class="st7" d="M12.7 65.8v.8h-2.6v1.7h2.2v.9h-2.2v2.4H9v-5.8z"/><path class="st0" d="M173 38.6h-4.9c-.5 0-1 .2-1.4.6l-2.9 2.9-.3.3H87.6c-.1-.1-.2-.3-.3-.4l-3.9-3.8c-.4-.4-.9-.6-1.4-.6H3c-1.7 0-3 1.3-3 3v5.6c0 1.7 1.3 3 3 3h79c.5 0 1-.2 1.4-.6l3.9-3.8c.1-.1.2-.3.3-.4h75.8c.1.2.2.3.3.5l2.9 2.9c.4.4.9.6 1.4.6h4.9c1.1 0 2-.9 2-2v-5.8c.1-1.1-.8-2-1.9-2zm-86.8 5.3l-3.9 3.8c-.1.1-.2.1-.3.1H3c-.8 0-1.5-.7-1.5-1.5v-5.6c0-.8.7-1.5 1.5-1.5h79c.1 0 .3 0 .3.1l3.9 3.8c.1.1.1.2.2.4 0 .1-.1.3-.2.4z"/></svg>