<svg id="Layer_1" xmlns="http://www.w3.org/2000/svg" viewBox="0 0 232 75"><style>.st0{fill:#32363f}.st7{fill:#fff}</style><path id="F" class="st0" d="M231.8 4.1v4.1H196v28.5h31v4.1h-31V72h-4.9V4.1z"/><path id="Rectangle-5-Copy" d="M3 0h30.2c.5 0 .9.2 1.3.5L39 4.3c.8.7 1 2 .3 2.8l-.3.3-4.6 3.8c-.4.3-.8.5-1.3.5H3c-1.7 0-3-1.3-3-3V3c0-1.7 1.3-3 3-3z" fill="#0045a6"/><path id="Rectangle-5-Copy-7" d="M3 12.6h46.6c.5 0 1 .2 1.3.5l4.2 3.8c.8.7.9 2 .1 2.8l-.1.1-4.1 3.9c-.4.3-.8.5-1.3.5H3c-1.7 0-3-1.3-3-3v-5.6c0-1.7 1.3-3 3-3z" fill="#297ef1"/><path id="Rectangle-5-Copy-8" d="M3 25.1h62.8c.5 0 1 .2 1.4.5l4 3.8c.8.8.8 2 .1 2.8l-.1.1-4 3.8c-.4.4-.9.5-1.4.5H3c-1.7 0-3-1.3-3-3V28c0-1.5 1.3-2.9 3-2.9z" fill="#68a4f2"/><path id="Rectangle-5-Copy-9" d="M3 37.7h79c.5 0 1 .2 1.4.6l3.9 3.8c.8.8.8 2 0 2.8l-3.9 3.8c-.4.4-.9.6-1.4.6H3c-1.7 0-3-1.3-3-3v-5.6c0-1.6 1.3-3 3-3z" fill="#a2c5f2"/><path id="Rectangle-5-Copy-10" d="M3 50.3h95.1c.5 0 1 .2 1.4.6l3.8 3.8c.8.8.8 2 0 2.8l-3.8 3.8c-.4.4-.9.6-1.4.6H3c-1.7 0-3-1.3-3-3v-5.6c0-1.7 1.3-3 3-3z" fill="#bfd0e6"/><path id="Rectangle-5-Copy-11_1_" d="M3 63.9c-1.1 0-2 .9-2 2v5.6c0 1.1.9 2 2 2h111.1c.3 0 .5-.1.7-.3l3.8-3.8c.4-.4.4-1 0-1.4l-3.8-3.8c-.2-.2-.4-.3-.7-.3H3z" fill="#d8e3f2"/><path id="C" class="st7" d="M12.3 32.4c.1 0 .1 0 .2.1l.4.5c-.2.3-.5.5-.9.7s-.8.2-1.2.2c-.4 0-.8-.1-1.2-.2-.3-.2-.6-.4-.8-.7l-.6-.9c-.1-.3-.2-.7-.2-1.2 0-.4.1-.8.2-1.2.1-.4.3-.7.6-.9.3-.3.6-.5.9-.6.4-.1.8-.2 1.2-.2.4 0 .8.1 1.1.2.3.1.6.3.8.5l-.4.5s0 .1-.1.1h-.1c-.1 0-.1 0-.2-.1-.1 0-.1-.1-.2-.2s-.2-.1-.4-.2c-.2 0-.3-.1-.6-.1s-.5 0-.8.1c-.2.1-.4.2-.6.4-.2.2-.3.4-.4.6-.1.2-.1.5-.1.8 0 .3 0 .6.1.9.1.2.2.5.4.6.2.2.3.3.6.4.2.1.4.1.7.1h.4c.1 0 .2 0 .3-.1s.2-.1.3-.1c.1-.1.2-.1.3-.2.2.3.2.3.3.2-.1.1 0 0 0 0z"/><path id="D" class="st7" d="M13.3 43.5c0 .4-.1.8-.2 1.2-.1.4-.3.7-.6.9s-.6.5-.9.6c-.4.1-.8.2-1.2.2H8v-5.8h2.3c.4 0 .9.1 1.2.2.4.1.7.3.9.6s.5.6.6.9c.2.4.3.8.3 1.2zm-1.2 0c0-.3 0-.6-.1-.9-.1-.3-.2-.5-.4-.6-.2-.2-.4-.3-.6-.4s-.5-.1-.8-.1H9.1v4.1h1.2c.3 0 .5 0 .8-.1s.4-.2.6-.4c.2-.2.3-.4.4-.6v-1z"/><path id="A" class="st7" d="M13.8 8.7h-.9c-.1 0-.2 0-.2-.1s-.1-.1-.1-.2l-.4-1.2H9.7l-.5 1.3c0 .1-.1.1-.1.2H8l2.3-5.8h1.1l2.4 5.8zM9.9 6.5h1.9l-.7-1.9c0-.1-.1-.2-.1-.3 0-.1-.1-.2-.1-.4 0 .1-.1.3-.1.4 0 .1-.1.2-.1.3l-.8 1.9z"/><path id="B" class="st7" d="M9 21.3v-5.8h2c.4 0 .7 0 1 .1.3.1.5.2.7.3.2.1.3.3.4.5.1.2.1.4.1.6 0 .1 0 .3-.1.4s-.1.2-.2.3l-.3.3c-.1.1-.3.2-.5.2.8.2 1.2.6 1.2 1.3 0 .2 0 .5-.1.7-.1.2-.2.4-.4.5-.2.2-.4.3-.7.4-.3.1-.6.1-.9.1H9zm1.1-2.6v1.7h1.1c.2 0 .4 0 .5-.1s.2-.1.3-.2.1-.2.2-.3c0-.1.1-.2.1-.3 0-.1 0-.2-.1-.3 0-.1-.1-.2-.2-.3-.1-.1-.2-.1-.3-.2-.1 0-.3-.1-.5-.1h-1.1zm0-.7h.9c.4 0 .7-.1.9-.2.2-.1.3-.3.3-.6s-.1-.5-.3-.6c-.2-.1-.4-.2-.8-.2h-.9V18z"/><path id="E" class="st7" d="M12.7 53.2v.8h-2.6v1.7h2.1v.8h-2.1v1.6h2.6v.9H9v-5.8z"/><path id="F_1_" class="st7" d="M12.7 65.8v.8h-2.6v1.7h2.2v.9h-2.2v2.4H9v-5.8z"/><path class="st0" d="M173 64h-4.9c-.5 0-1 .2-1.4.6l-2.9 2.9h-44.3c-.1-.1-.1-.2-.2-.3l-3.8-3.8c-.4-.4-.9-.6-1.4-.6H3c-1.7 0-3 1.3-3 3v5.6c0 1.7 1.3 3 3 3h111.1c.5 0 1-.2 1.4-.6l3.8-3.8c.2-.2.3-.4.4-.6h43.6c.1.3.2.6.5.8l2.9 2.9c.4.4.9.6 1.4.6h4.9c1.1 0 2-.9 2-2V66c0-1.1-.9-2-2-2zm-58.9 8.5H3c-.6 0-1-.4-1-1v-5.6c0-.6.4-1 1-1h111.1l3.8 3.8-3.8 3.8z"/></svg>